<?xml version="1.0" encoding="utf-8"?>
<!-- Generator: Adobe Illustrator 19.2.1, SVG Export Plug-In . SVG Version: 6.00 Build 0)  -->
<svg version="1.1" id="Layer_1" xmlns="http://www.w3.org/2000/svg" xmlns:xlink="http://www.w3.org/1999/xlink" x="0px" y="0px"
	 viewBox="0 0 197.6 87.3" style="enable-background:new 0 0 197.6 87.3;" xml:space="preserve">
<style type="text/css">
	.st0{fill:#FCDD2E;}
	.st1{fill:#FFFFFF;}
</style>
<g>
	<g>
		<polygon class="st0" points="115.9,22.3 124.9,19 115.9,15.4 115.9,10.8 131.4,17 131.4,20.9 115.9,27.2 		"/>
		<path class="st1" d="M30.2,52.2c-3.3,0-6-1.7-6-5.3v-0.2c0-4.5,3.9-5.9,8.6-5.9H35v-0.9c0-1.8-0.8-2.9-2.7-2.9
			c-1.7,0-2.6,1-2.7,2.4h-4.9c0.3-4,3.5-6,7.8-6c4.4,0,7.5,1.9,7.5,6.4v12.1h-5v-2.1C34.3,51,32.6,52.2,30.2,52.2z M35,45.8V44h-2
			c-2.5,0-3.8,0.7-3.8,2.3v0.2c0,1.2,0.8,2.1,2.5,2.1C33.5,48.7,35,47.7,35,45.8z M51.6,52.2c-5,0-8.7-3.1-8.7-9.3v-0.2
			c0-6.1,3.9-9.4,8.7-9.4c4.1,0,7.5,2.1,7.9,6.8h-4.9c-0.3-1.8-1.2-2.9-3-2.9c-2.2,0-3.6,1.7-3.6,5.3V43c0,3.7,1.3,5.3,3.7,5.3
			c1.7,0,3-1.3,3.3-3.3h4.6C59.3,49.2,56.5,52.2,51.6,52.2z M70.5,52.2c-5,0-8.7-3.1-8.7-9.3v-0.2c0-6.1,3.9-9.4,8.7-9.4
			c4.1,0,7.5,2.1,7.9,6.8h-4.9c-0.3-1.8-1.2-2.9-3-2.9c-2.2,0-3.6,1.7-3.6,5.3V43c0,3.7,1.3,5.3,3.7,5.3c1.7,0,3-1.3,3.3-3.3h4.6
			C78.2,49.2,75.4,52.2,70.5,52.2z M89.5,52.2c-5.2,0-8.8-3.1-8.8-9.2v-0.3c0-6.1,3.8-9.4,8.6-9.4c4.5,0,8.3,2.5,8.3,8.5V44H85.8
			c0.2,3.3,1.6,4.5,3.8,4.5c1.9,0,3-1,3.3-2.4h4.7C97,49.6,94.2,52.2,89.5,52.2z M85.9,40.6h6.8c-0.1-2.7-1.3-3.8-3.3-3.8
			C87.7,36.8,86.3,37.7,85.9,40.6z M100.7,33.7h5.1v2.7c0.9-1.7,2.7-3.1,5.5-3.1c3.3,0,5.5,2,5.5,6.4v12.1h-5.1V40.4
			c0-2.1-0.9-3.1-2.7-3.1c-1.8,0-3.2,1.1-3.2,3.4v11.1h-5.1V33.7z M126.2,28.2v5.5h3.5v3.8h-3.5v8.6c0,1.4,0.6,2,1.8,2
			c0.7,0,1.3-0.1,1.8-0.3v4c-0.6,0.2-1.6,0.4-2.8,0.4c-4,0-5.8-1.8-5.8-5.5v-9.1H119v-3.8h2.1v-3.4L126.2,28.2z M148.7,51.8h-5.1
			v-2.7c-0.9,1.7-2.6,3.1-5.3,3.1c-3.3,0-5.7-2-5.7-6.2V33.7h5.1v11.5c0,2.1,0.8,3.1,2.6,3.1c1.8,0,3.2-1.1,3.2-3.4V33.7h5.1V51.8z
			 M152.4,33.7h5.1V37c1.1-2.4,2.8-3.6,5.4-3.6v5c-3.4,0-5.4,1-5.4,4.1v9.3h-5.1V33.7z M173.3,52.2c-5.2,0-8.8-3.1-8.8-9.2v-0.3
			c0-6.1,3.8-9.4,8.6-9.4c4.5,0,8.3,2.5,8.3,8.5V44h-11.8c0.2,3.3,1.6,4.5,3.8,4.5c1.9,0,3-1,3.3-2.4h4.7
			C180.9,49.6,178.1,52.2,173.3,52.2z M169.7,40.6h6.8c-0.1-2.7-1.3-3.8-3.3-3.8C171.6,36.8,170.1,37.7,169.7,40.6z"/>
	</g>
	<path class="st1" d="M24.8,61.6h1v3.8h4.4v-3.8h1V70h-1v-3.8h-4.4V70h-1V61.6z M33.2,61.9c0-0.4,0.3-0.6,0.6-0.6
		c0.4,0,0.6,0.3,0.6,0.6c0,0.4-0.3,0.6-0.6,0.6C33.5,62.6,33.2,62.3,33.2,61.9z M33.4,63.9h1V70h-1V63.9z M36,70.4h1
		c0.1,0.7,0.7,1.1,1.8,1.1c1.2,0,2-0.6,2-1.9v-0.9c-0.4,0.6-1.2,1.2-2.1,1.2c-1.6,0-2.8-1.2-2.8-2.9v-0.1c0-1.7,1.2-3.1,2.9-3.1
		c1,0,1.7,0.5,2,1.1v-1h1v5.8c0,1.8-1.2,2.7-2.9,2.7C37,72.3,36.2,71.4,36,70.4z M40.8,66.8L40.8,66.8c0-1.5-0.8-2.3-2-2.3
		c-1.2,0-2,0.9-2,2.2v0.1c0,1.3,0.9,2.1,1.9,2.1C39.9,69,40.8,68.2,40.8,66.8z M43.7,60.9h1v3.9c0.3-0.6,1-1.1,2-1.1
		c1.3,0,2.2,0.7,2.2,2.5V70h-1v-3.9c0-1.1-0.5-1.6-1.5-1.6c-0.9,0-1.7,0.6-1.7,1.7V70h-1V60.9z M53.9,63.9h1v1
		c0.4-0.6,1.2-1.1,2.1-1.1c1.6,0,2.8,1.2,2.8,3.1V67c0,1.9-1.1,3.2-2.8,3.2c-1,0-1.7-0.5-2.1-1.1v3.2h-1V63.9z M58.8,67L58.8,67
		c0-1.7-0.9-2.4-1.9-2.4c-1.1,0-2,0.8-2,2.3V67c0,1.6,0.8,2.3,2,2.3C58.1,69.3,58.8,68.5,58.8,67z M60.9,67L60.9,67
		c0-2,1.2-3.3,2.9-3.3c1.4,0,2.8,0.9,2.8,3.1v0.3h-4.6c0,1.4,0.7,2.2,2,2.2c1,0,1.5-0.4,1.6-1.1h1c-0.2,1.2-1.2,1.9-2.6,1.9
		C62.1,70.1,60.9,68.9,60.9,67z M65.5,66.4c-0.1-1.3-0.8-1.8-1.8-1.8c-1,0-1.7,0.7-1.8,1.8H65.5z M67.8,63.9h1V65
		c0.4-0.7,0.9-1.2,2-1.2v0.9c-1.2,0.1-2,0.4-2,2V70h-1V63.9z M72.8,64.7h-0.9v-0.8h0.9v-1c0-1.3,0.6-2,1.8-2c0.3,0,0.5,0,0.7,0.1
		v0.8c-0.2-0.1-0.4-0.1-0.7-0.1c-0.6,0-0.9,0.4-0.9,1.1v1.1h1.5v0.8h-1.5V70h-1V64.7z M75.9,67L75.9,67c0-1.9,1.3-3.2,3-3.2
		c1.7,0,3,1.3,3,3.1V67c0,1.9-1.3,3.2-3,3.2C77.2,70.1,75.9,68.8,75.9,67z M81,67L81,67c0-1.5-0.8-2.4-2-2.4c-1.2,0-2,0.9-2,2.3V67
		c0,1.4,0.8,2.3,2,2.3C80.2,69.3,81,68.4,81,67z M83.5,63.9h1V65c0.4-0.7,0.9-1.2,2-1.2v0.9c-1.2,0.1-2,0.4-2,2V70h-1V63.9z
		 M88,63.9h1v0.9c0.3-0.6,1-1.1,1.8-1.1c0.8,0,1.5,0.3,1.8,1.2c0.4-0.8,1.3-1.2,2.1-1.2c1.1,0,2.1,0.7,2.1,2.5V70h-1v-3.9
		c0-1.1-0.5-1.5-1.3-1.5c-0.8,0-1.6,0.5-1.6,1.7V70h-1v-3.9c0-1.1-0.5-1.5-1.3-1.5c-0.8,0-1.6,0.5-1.6,1.7V70h-1V63.9z M98.2,68.3
		c0-1.4,1.5-1.9,3.1-1.9h0.9V66c0-1-0.4-1.4-1.3-1.4c-0.8,0-1.3,0.4-1.4,1.1h-1c0.1-1.4,1.3-1.9,2.4-1.9c1.2,0,2.3,0.5,2.3,2.2V70
		h-1v-0.8c-0.5,0.6-1,0.9-1.9,0.9C99.1,70.1,98.2,69.6,98.2,68.3z M102.2,67.9v-0.8h-0.8c-1.2,0-2.1,0.3-2.1,1.2c0,0.6,0.3,1,1.2,1
		C101.4,69.4,102.2,68.8,102.2,67.9z M105.1,63.9h1v1c0.3-0.6,1-1.1,2-1.1c1.3,0,2.2,0.7,2.2,2.5V70h-1v-3.9c0-1.1-0.5-1.6-1.5-1.6
		c-0.9,0-1.7,0.6-1.7,1.7V70h-1V63.9z M111.7,67L111.7,67c0-2,1.3-3.3,3-3.3c1.3,0,2.5,0.6,2.7,2.2h-1c-0.2-1-0.9-1.3-1.7-1.3
		c-1.1,0-2,0.9-2,2.3V67c0,1.5,0.8,2.3,2,2.3c0.9,0,1.7-0.5,1.8-1.5h0.9c-0.1,1.3-1.2,2.3-2.7,2.3C113,70.1,111.7,68.9,111.7,67z
		 M118.4,67L118.4,67c0-2,1.2-3.3,2.9-3.3c1.4,0,2.8,0.9,2.8,3.1v0.3h-4.6c0,1.4,0.7,2.2,2,2.2c1,0,1.5-0.4,1.6-1.1h1
		c-0.2,1.2-1.2,1.9-2.6,1.9C119.6,70.1,118.4,68.9,118.4,67z M123.1,66.4c-0.1-1.3-0.8-1.8-1.8-1.8c-1,0-1.7,0.7-1.8,1.8H123.1z
		 M125.2,69.3c0-0.4,0.3-0.8,0.8-0.8c0.4,0,0.8,0.3,0.8,0.8c0,0.4-0.3,0.8-0.8,0.8C125.5,70.1,125.2,69.8,125.2,69.3z M131.6,61.6
		h2.2c2.9,0,4.3,1.8,4.3,4.1v0.1c0,2.3-1.3,4.2-4.3,4.2h-2.2V61.6z M133.8,69.2c2.2,0,3.3-1.3,3.3-3.4v-0.1c0-1.9-0.9-3.3-3.3-3.3
		h-1.1v6.8H133.8z M139,67L139,67c0-2,1.2-3.3,2.9-3.3c1.4,0,2.8,0.9,2.8,3.1v0.3H140c0,1.4,0.7,2.2,2,2.2c1,0,1.5-0.4,1.6-1.1h1
		c-0.2,1.2-1.2,1.9-2.6,1.9C140.3,70.1,139,68.9,139,67z M143.7,66.4c-0.1-1.3-0.8-1.8-1.8-1.8c-1,0-1.7,0.7-1.8,1.8H143.7z
		 M146.2,60.9h1V70h-1V60.9z M149.1,61.9c0-0.4,0.3-0.6,0.6-0.6c0.4,0,0.6,0.3,0.6,0.6c0,0.4-0.3,0.6-0.6,0.6
		C149.3,62.6,149.1,62.3,149.1,61.9z M149.2,63.9h1V70h-1V63.9z M151.5,63.9h1.1l1.8,5.2l1.8-5.2h1L155,70h-1.3L151.5,63.9z
		 M157.9,67L157.9,67c0-2,1.2-3.3,2.9-3.3c1.4,0,2.8,0.9,2.8,3.1v0.3h-4.6c0,1.4,0.7,2.2,2,2.2c1,0,1.5-0.4,1.6-1.1h1
		c-0.2,1.2-1.2,1.9-2.6,1.9C159.1,70.1,157.9,68.9,157.9,67z M162.5,66.4c-0.1-1.3-0.8-1.8-1.8-1.8c-1,0-1.7,0.7-1.8,1.8H162.5z
		 M165.1,63.9h1V65c0.4-0.7,0.9-1.2,2-1.2v0.9c-1.2,0.1-2,0.4-2,2V70h-1V63.9z M168.9,67L168.9,67c0-2,1.2-3.3,2.9-3.3
		c1.4,0,2.8,0.9,2.8,3.1v0.3h-4.6c0,1.4,0.7,2.2,2,2.2c1,0,1.5-0.4,1.6-1.1h1c-0.2,1.2-1.2,1.9-2.6,1.9
		C170.1,70.1,168.9,68.9,168.9,67z M173.5,66.4c-0.1-1.3-0.8-1.8-1.8-1.8c-1,0-1.7,0.7-1.8,1.8H173.5z M175.6,67.1L175.6,67.1
		c0-2,1.2-3.3,2.9-3.3c1,0,1.7,0.5,2,1.1v-3.9h1V70h-1V69c-0.4,0.6-1.2,1.2-2.1,1.2C176.7,70.1,175.6,69,175.6,67.1z M180.5,67
		L180.5,67c0-1.7-0.8-2.4-2-2.4c-1.2,0-2,0.9-2,2.4V67c0,1.6,0.8,2.3,1.9,2.3C179.6,69.3,180.5,68.6,180.5,67z M182.9,69.3
		c0-0.4,0.3-0.8,0.8-0.8s0.8,0.3,0.8,0.8c0,0.4-0.3,0.8-0.8,0.8S182.9,69.8,182.9,69.3z"/>
</g>
</svg>
