<?xml version="1.0" encoding="utf-8"?>
<!-- Generator: Adobe Illustrator 19.2.1, SVG Export Plug-In . SVG Version: 6.00 Build 0)  -->
<svg version="1.1" id="Layer_1" xmlns="http://www.w3.org/2000/svg" xmlns:xlink="http://www.w3.org/1999/xlink" x="0px" y="0px"
	 viewBox="0 0 311.9 135.7" style="enable-background:new 0 0 311.9 135.7;" xml:space="preserve">
<style type="text/css">
	.st0{enable-background:new    ;}
	.st1{fill:#FFFFFF;}
	.st2{fill:#646569;}
</style>
<g class="st0">
	<path class="st1" d="M25.7,103.5V41.5h21.4c4.8,0,8.5,0.3,11.1,0.9c3.6,0.8,6.6,2.3,9.1,4.4c3.3,2.8,5.7,6.3,7.4,10.6
		c1.6,4.3,2.4,9.2,2.4,14.8c0,4.7-0.6,8.9-1.7,12.5c-1.1,3.6-2.5,6.7-4.2,9c-1.7,2.4-3.6,4.3-5.7,5.6c-2,1.4-4.5,2.4-7.4,3.1
		c-2.9,0.7-6.2,1.1-10,1.1H25.7z M33.9,96.2h13.3c4.1,0,7.3-0.4,9.6-1.1s4.2-1.8,5.6-3.2c2-1.9,3.5-4.6,4.6-7.9
		c1.1-3.3,1.6-7.3,1.6-12c0-6.5-1.1-11.5-3.2-15c-2.1-3.5-4.7-5.8-7.8-7c-2.2-0.8-5.8-1.3-10.6-1.3H33.9V96.2z"/>
</g>
<g class="st0">
	<path class="st1" d="M84.1,103.5V41.5H126v7.3H92.3V68h29.2v7.3H92.3v28.2H84.1z"/>
</g>
<rect x="138.1" y="15.8" class="st2" width="4.9" height="108.6"/>
<g class="st0">
	<path class="st1" d="M157.6,103.3V88.7h-2.5v-2.2h2.5v-1.8c0-1.1,0.1-2,0.3-2.5c0.3-0.7,0.8-1.3,1.4-1.8c0.7-0.5,1.7-0.7,2.9-0.7
		c0.8,0,1.7,0.1,2.7,0.3l-0.4,2.5c-0.6-0.1-1.2-0.2-1.7-0.2c-0.9,0-1.5,0.2-1.8,0.6s-0.5,1.1-0.5,2.1v1.6h3.3v2.2h-3.3v14.6H157.6z"
		/>
	<path class="st1" d="M176.9,101.3c-1.1,0.9-2.1,1.5-3,1.9s-2,0.6-3.1,0.6c-1.8,0-3.3-0.5-4.3-1.4c-1-0.9-1.5-2.1-1.5-3.5
		c0-0.8,0.2-1.6,0.6-2.3c0.4-0.7,0.9-1.2,1.5-1.6s1.3-0.7,2-0.9c0.6-0.1,1.4-0.3,2.5-0.4c2.3-0.3,4-0.6,5.1-1c0-0.4,0-0.6,0-0.7
		c0-1.2-0.3-2-0.8-2.5c-0.7-0.6-1.8-1-3.2-1c-1.3,0-2.3,0.2-3,0.7c-0.6,0.5-1.1,1.3-1.4,2.5l-2.8-0.4c0.3-1.2,0.7-2.2,1.3-2.9
		c0.6-0.7,1.4-1.3,2.5-1.7s2.4-0.6,3.8-0.6c1.4,0,2.6,0.2,3.5,0.5c0.9,0.3,1.6,0.8,2,1.3c0.4,0.5,0.7,1.2,0.9,1.9
		c0.1,0.5,0.1,1.4,0.1,2.6v3.8c0,2.6,0.1,4.3,0.2,5c0.1,0.7,0.4,1.4,0.7,2h-3C177.2,102.7,177,102,176.9,101.3z M176.7,94.9
		c-1,0.4-2.6,0.8-4.7,1.1c-1.2,0.2-2,0.4-2.5,0.6s-0.9,0.5-1.1,0.9s-0.4,0.9-0.4,1.4c0,0.8,0.3,1.4,0.9,1.9c0.6,0.5,1.4,0.8,2.5,0.8
		c1.1,0,2.1-0.2,2.9-0.7c0.9-0.5,1.5-1.1,1.9-2c0.3-0.6,0.5-1.6,0.5-2.8V94.9z"/>
	<path class="st1" d="M184,103.3V80.1h2.8v13.2l6.7-6.8h3.7l-6.4,6.2l7.1,10.6h-3.5l-5.6-8.6l-2,1.9v6.7H184z"/>
	<path class="st1" d="M211.2,103.3v-2.5c-1.3,1.9-3.1,2.8-5.3,2.8c-1,0-1.9-0.2-2.8-0.6c-0.9-0.4-1.5-0.9-1.9-1.4
		c-0.4-0.6-0.7-1.3-0.9-2.1c-0.1-0.6-0.2-1.4-0.2-2.7V86.5h2.8v9.3c0,1.5,0.1,2.5,0.2,3c0.2,0.7,0.6,1.3,1.1,1.8
		c0.6,0.4,1.3,0.6,2.2,0.6c0.9,0,1.7-0.2,2.4-0.7s1.3-1,1.6-1.8c0.3-0.8,0.5-1.8,0.5-3.3v-9h2.8v16.8H211.2z"/>
	<path class="st1" d="M218.1,103.3V80.1h2.8v23.2H218.1z"/>
	<path class="st1" d="M231.6,100.8l0.4,2.5c-0.8,0.2-1.5,0.3-2.2,0.3c-1,0-1.8-0.2-2.4-0.5c-0.6-0.3-1-0.8-1.2-1.3
		c-0.2-0.5-0.3-1.7-0.3-3.4v-9.7h-2.1v-2.2h2.1v-4.2l2.8-1.7v5.9h2.9v2.2h-2.9v9.8c0,0.8,0,1.3,0.1,1.6c0.1,0.2,0.3,0.4,0.5,0.6
		c0.2,0.1,0.6,0.2,1,0.2C230.7,100.9,231.1,100.9,231.6,100.8z"/>
	<path class="st1" d="M245.4,101.3c-1.1,0.9-2.1,1.5-3,1.9s-2,0.6-3.1,0.6c-1.8,0-3.3-0.5-4.3-1.4c-1-0.9-1.5-2.1-1.5-3.5
		c0-0.8,0.2-1.6,0.6-2.3c0.4-0.7,0.9-1.2,1.5-1.6s1.3-0.7,2-0.9c0.6-0.1,1.4-0.3,2.5-0.4c2.3-0.3,4-0.6,5.1-1c0-0.4,0-0.6,0-0.7
		c0-1.2-0.3-2-0.8-2.5c-0.7-0.6-1.8-1-3.2-1c-1.3,0-2.3,0.2-3,0.7c-0.6,0.5-1.1,1.3-1.4,2.5l-2.8-0.4c0.3-1.2,0.7-2.2,1.3-2.9
		s1.4-1.3,2.5-1.7c1.1-0.4,2.4-0.6,3.8-0.6c1.4,0,2.6,0.2,3.5,0.5c0.9,0.3,1.6,0.8,2,1.3s0.7,1.2,0.9,1.9c0.1,0.5,0.1,1.4,0.1,2.6
		v3.8c0,2.6,0.1,4.3,0.2,5c0.1,0.7,0.4,1.4,0.7,2h-3C245.6,102.7,245.4,102,245.4,101.3z M245.1,94.9c-1,0.4-2.6,0.8-4.7,1.1
		c-1.2,0.2-2,0.4-2.5,0.6c-0.5,0.2-0.9,0.5-1.1,0.9s-0.4,0.9-0.4,1.4c0,0.8,0.3,1.4,0.9,1.9c0.6,0.5,1.4,0.8,2.5,0.8
		c1.1,0,2.1-0.2,2.9-0.7c0.9-0.5,1.5-1.1,1.9-2c0.3-0.6,0.5-1.6,0.5-2.8V94.9z M236.6,83.9v-2.3h9.9v2.3H236.6z"/>
	<path class="st1" d="M258.6,100.8l0.4,2.5c-0.8,0.2-1.5,0.3-2.2,0.3c-1,0-1.8-0.2-2.4-0.5c-0.6-0.3-1-0.8-1.2-1.3
		c-0.2-0.5-0.3-1.7-0.3-3.4v-9.7h-2.1v-2.2h2.1v-4.2l2.8-1.7v5.9h2.9v2.2h-2.9v9.8c0,0.8,0,1.3,0.2,1.6c0.1,0.2,0.3,0.4,0.5,0.6
		c0.2,0.1,0.6,0.2,1,0.2C257.7,100.9,258.1,100.9,258.6,100.8z"/>
	<path class="st1" d="M272.9,97.9l2.9,0.4c-0.5,1.7-1.3,3.1-2.6,4s-2.9,1.4-4.8,1.4c-2.5,0-4.4-0.8-5.8-2.3
		c-1.4-1.5-2.2-3.6-2.2-6.4c0-2.8,0.7-5,2.2-6.6c1.5-1.6,3.3-2.3,5.7-2.3c2.2,0,4.1,0.8,5.5,2.3s2.1,3.7,2.1,6.5c0,0.2,0,0.4,0,0.8
		h-12.5c0.1,1.8,0.6,3.3,1.6,4.2c0.9,1,2.1,1.5,3.5,1.5c1,0,1.9-0.3,2.7-0.8S272.5,99.1,272.9,97.9z M263.6,93.3h9.4
		c-0.1-1.4-0.5-2.5-1.1-3.2c-0.9-1.1-2.1-1.6-3.5-1.6c-1.3,0-2.4,0.4-3.3,1.3C264.1,90.7,263.7,91.8,263.6,93.3z"/>
</g>
<g class="st0">
	<path class="st1" d="M157.3,64.5V41.3h8c1.8,0,3.2,0.1,4.1,0.3c1.3,0.3,2.5,0.9,3.4,1.7c1.2,1,2.1,2.4,2.7,4
		c0.6,1.6,0.9,3.4,0.9,5.5c0,1.8-0.2,3.3-0.6,4.7c-0.4,1.4-0.9,2.5-1.6,3.4c-0.6,0.9-1.3,1.6-2.1,2.1c-0.8,0.5-1.7,0.9-2.8,1.2
		s-2.3,0.4-3.7,0.4H157.3z M160.4,61.7h5c1.5,0,2.7-0.1,3.6-0.4s1.6-0.7,2.1-1.2c0.7-0.7,1.3-1.7,1.7-2.9c0.4-1.2,0.6-2.7,0.6-4.5
		c0-2.4-0.4-4.3-1.2-5.6c-0.8-1.3-1.8-2.2-2.9-2.6c-0.8-0.3-2.1-0.5-4-0.5h-4.9V61.7z"/>
	<path class="st1" d="M191.3,62.4c-1.1,0.9-2.1,1.5-3,1.9s-2,0.6-3.1,0.6c-1.8,0-3.3-0.5-4.3-1.4c-1-0.9-1.5-2.1-1.5-3.5
		c0-0.8,0.2-1.6,0.6-2.3c0.4-0.7,0.9-1.2,1.5-1.6s1.3-0.7,2-0.9c0.6-0.1,1.4-0.3,2.5-0.4c2.3-0.3,4-0.6,5.1-1c0-0.4,0-0.6,0-0.7
		c0-1.2-0.3-2-0.8-2.5c-0.7-0.6-1.8-1-3.2-1c-1.3,0-2.3,0.2-3,0.7c-0.6,0.5-1.1,1.3-1.4,2.5l-2.8-0.4c0.3-1.2,0.7-2.2,1.3-2.9
		s1.4-1.3,2.5-1.7c1.1-0.4,2.4-0.6,3.8-0.6c1.4,0,2.6,0.2,3.5,0.5c0.9,0.3,1.6,0.8,2,1.3s0.7,1.2,0.9,1.9c0.1,0.5,0.1,1.4,0.1,2.6
		v3.8c0,2.6,0.1,4.3,0.2,5c0.1,0.7,0.4,1.4,0.7,2h-3C191.6,63.9,191.4,63.2,191.3,62.4z M191.1,56c-1,0.4-2.6,0.8-4.7,1.1
		c-1.2,0.2-2,0.4-2.5,0.6c-0.5,0.2-0.9,0.5-1.1,0.9s-0.4,0.9-0.4,1.4c0,0.8,0.3,1.4,0.9,1.9c0.6,0.5,1.4,0.8,2.5,0.8
		c1.1,0,2.1-0.2,2.9-0.7c0.9-0.5,1.5-1.1,1.9-2c0.3-0.6,0.5-1.6,0.5-2.8V56z"/>
	<path class="st1" d="M204.6,61.9l0.4,2.5c-0.8,0.2-1.5,0.3-2.2,0.3c-1,0-1.8-0.2-2.4-0.5c-0.6-0.3-1-0.8-1.2-1.3
		c-0.2-0.5-0.3-1.7-0.3-3.4v-9.7h-2.1v-2.2h2.1v-4.2l2.8-1.7v5.9h2.9v2.2h-2.9v9.8c0,0.8,0,1.3,0.2,1.6c0.1,0.2,0.3,0.4,0.5,0.6
		c0.2,0.1,0.6,0.2,1,0.2C203.6,62,204.1,62,204.6,61.9z"/>
	<path class="st1" d="M206.3,56.1c0-3.1,0.9-5.4,2.6-6.9c1.4-1.2,3.2-1.9,5.3-1.9c2.3,0,4.2,0.8,5.7,2.3s2.2,3.6,2.2,6.3
		c0,2.2-0.3,3.9-1,5.1c-0.6,1.2-1.6,2.2-2.8,2.9c-1.2,0.7-2.6,1-4.1,1c-2.4,0-4.3-0.8-5.7-2.3C207,61.1,206.3,58.9,206.3,56.1z
		 M209.2,56.1c0,2.2,0.5,3.8,1.4,4.8c0.9,1.1,2.1,1.6,3.5,1.6c1.4,0,2.6-0.5,3.5-1.6c0.9-1.1,1.4-2.7,1.4-4.9c0-2.1-0.5-3.7-1.4-4.7
		c-0.9-1.1-2.1-1.6-3.5-1.6c-1.4,0-2.6,0.5-3.5,1.6C209.7,52.3,209.2,53.9,209.2,56.1z"/>
	<path class="st1" d="M225.4,64.5V47.7h2.6v2.5c0.7-1.2,1.3-2,1.8-2.4s1.2-0.6,1.8-0.6c1,0,1.9,0.3,2.9,0.9l-1,2.6
		c-0.7-0.4-1.4-0.6-2.1-0.6c-0.6,0-1.2,0.2-1.7,0.6c-0.5,0.4-0.8,0.9-1.1,1.6c-0.3,1-0.5,2.1-0.5,3.3v8.8H225.4z"/>
	<path class="st1" d="M236.2,44.5v-3.3h2.8v3.3H236.2z M236.2,64.5V47.7h2.8v16.8H236.2z"/>
	<path class="st1" d="M243.4,64.5V41.3h2.8v13.2l6.7-6.8h3.7l-6.4,6.2l7.1,10.6h-3.5l-5.6-8.6l-2,1.9v6.7H243.4z"/>
	<path class="st1" d="M270.5,62.4c-1.1,0.9-2.1,1.5-3,1.9s-2,0.6-3.1,0.6c-1.8,0-3.3-0.5-4.3-1.4c-1-0.9-1.5-2.1-1.5-3.5
		c0-0.8,0.2-1.6,0.6-2.3c0.4-0.7,0.9-1.2,1.5-1.6s1.3-0.7,2-0.9c0.6-0.1,1.4-0.3,2.5-0.4c2.3-0.3,4-0.6,5.1-1c0-0.4,0-0.6,0-0.7
		c0-1.2-0.3-2-0.8-2.5c-0.7-0.6-1.8-1-3.2-1c-1.3,0-2.3,0.2-3,0.7c-0.6,0.5-1.1,1.3-1.4,2.5l-2.8-0.4c0.3-1.2,0.7-2.2,1.3-2.9
		c0.6-0.7,1.4-1.3,2.5-1.7s2.4-0.6,3.8-0.6c1.4,0,2.6,0.2,3.5,0.5c0.9,0.3,1.6,0.8,2,1.3c0.4,0.5,0.7,1.2,0.9,1.9
		c0.1,0.5,0.1,1.4,0.1,2.6v3.8c0,2.6,0.1,4.3,0.2,5c0.1,0.7,0.4,1.4,0.7,2h-3C270.8,63.9,270.6,63.2,270.5,62.4z M270.3,56
		c-1,0.4-2.6,0.8-4.7,1.1c-1.2,0.2-2,0.4-2.5,0.6s-0.9,0.5-1.1,0.9s-0.4,0.9-0.4,1.4c0,0.8,0.3,1.4,0.9,1.9c0.6,0.5,1.4,0.8,2.5,0.8
		c1.1,0,2.1-0.2,2.9-0.7c0.9-0.5,1.5-1.1,1.9-2c0.3-0.6,0.5-1.6,0.5-2.8V56z"/>
	<path class="st1" d="M276.5,59.4l2.8-0.4c0.2,1.1,0.6,2,1.3,2.6c0.7,0.6,1.7,0.9,3,0.9c1.3,0,2.3-0.3,2.9-0.8
		c0.6-0.5,0.9-1.2,0.9-1.9c0-0.6-0.3-1.1-0.8-1.5c-0.4-0.3-1.4-0.6-2.9-1c-2.1-0.5-3.5-1-4.3-1.4s-1.4-0.9-1.8-1.6
		c-0.4-0.7-0.6-1.4-0.6-2.3c0-0.7,0.2-1.4,0.5-2.1s0.8-1.2,1.4-1.6c0.4-0.3,1-0.6,1.8-0.8c0.8-0.2,1.6-0.3,2.5-0.3
		c1.3,0,2.5,0.2,3.5,0.6c1,0.4,1.7,0.9,2.2,1.5s0.8,1.5,1,2.6l-2.8,0.4c-0.1-0.9-0.5-1.5-1.1-2s-1.5-0.7-2.6-0.7
		c-1.3,0-2.2,0.2-2.8,0.6s-0.8,0.9-0.8,1.5c0,0.4,0.1,0.7,0.3,1c0.2,0.3,0.6,0.6,1.1,0.8c0.3,0.1,1.1,0.3,2.5,0.7
		c2,0.5,3.4,1,4.2,1.3c0.8,0.3,1.4,0.8,1.9,1.5c0.5,0.7,0.7,1.5,0.7,2.4c0,0.9-0.3,1.8-0.8,2.7c-0.6,0.8-1.4,1.5-2.4,1.9
		s-2.2,0.7-3.5,0.7c-2.2,0-3.8-0.5-5-1.4C277.5,62.6,276.8,61.2,276.5,59.4z"/>
</g>
</svg>
