<?xml version="1.0" encoding="utf-8"?>
<!-- Generator: Adobe Illustrator 19.2.1, SVG Export Plug-In . SVG Version: 6.00 Build 0)  -->
<svg version="1.1" id="Layer_1" xmlns="http://www.w3.org/2000/svg" xmlns:xlink="http://www.w3.org/1999/xlink" x="0px" y="0px"
	 viewBox="0 0 179.6 157.1" style="enable-background:new 0 0 179.6 157.1;" xml:space="preserve">
<style type="text/css">
	.st0{fill:#FFFFFF;}
</style>
<path class="st0" d="M80.1,17.4 M118.3,21.8l-0.7,0.7h0.7C118.3,22.2,118.3,22,118.3,21.8z M114.2,21.8l0,0.7h0.7L114.2,21.8z
	 M109,22c0-0.3,0-0.5,0-0.5c0,0-0.2,0.2-0.5,0.5l-0.5,0.5h0.9V22z M104.7,21.5c0,0,0,0.2,0,0.5v0.5h1
	C105.3,22.1,105,21.8,104.7,21.5z M99.5,22.1v-0.4l-0.4,0.4c-0.2,0.2-0.4,0.4-0.4,0.4l0.7,0V22.1z M95.9,22.2
	c-0.3-0.4-0.5-0.5-0.6-0.6c0,0.3,0,0.5,0,0.6v0.2h0.8L95.9,22.2z M81.6,22.3c0-0.1,0-0.4,0-0.5c-0.2,0.2-0.3,0.3-0.5,0.5l-0.2,0.2
	h0.4h0.4V22.3z M78.2,22.5c0,0-0.2-0.2-0.4-0.4l-0.4-0.4v0.4v0.4h0.4C78,22.5,78.2,22.5,78.2,22.5z M72.3,22c0-0.3,0-0.5,0-0.5
	c0,0-0.4,0.4-0.7,0.8l-0.2,0.2h0.5h0.5V22z M68.8,22.5c0,0-0.2-0.2-0.5-0.5l-0.5-0.5V22v0.5h0.5C68.6,22.5,68.8,22.5,68.8,22.5z
	 M62.8,22.1c0-0.4,0-0.4-0.2-0.2L62,22.5h0.7V22.1z M59.3,22.5c0,0-0.2-0.2-0.3-0.4l-0.3-0.4v0.4v0.4C58.8,22.5,59.1,22.5,59.3,22.5
	z M105.4,23.1c0.1-0.2,0.2-0.3,0.2-0.3C105.6,22.8,105.5,22.9,105.4,23.1c-0.2,0.2-0.3,0.3-0.3,0.3
	C105.1,23.3,105.3,23.2,105.4,23.1z M71.8,23.3c0,0-0.1-0.1-0.3-0.3l-0.3-0.3l0.3,0.3C71.8,23.3,71.8,23.4,71.8,23.3z M104.8,23.4
	l0.5-0.6l-0.9-0.1l-0.7,0.7c0.1,0.2,0.3,0.3,0.5,0.5C104.2,24,104.5,23.7,104.8,23.4z M73.2,23.4l-0.3-0.3l-0.3-0.3l-0.5,0l-0.5,0
	l0.5,0.6c0.3,0.3,0.5,0.6,0.6,0.6c0,0,0.1-0.1,0.3-0.3L73.2,23.4z M109.5,23.7l0.3-0.3l-0.6-0.7l-1.1,0l0.6,0.6
	c0.3,0.3,0.6,0.6,0.6,0.6C109.3,24,109.4,23.9,109.5,23.7z M68.8,22.8l-0.5,0l-0.5,0l-0.3,0.3l-0.3,0.3l0.3,0.3
	c0.1,0.2,0.3,0.3,0.3,0.3c0,0,0.3-0.3,0.6-0.6L68.8,22.8z M104.7,23.8l0.4-0.4L104.7,23.8c-0.4,0.3-0.4,0.4-0.4,0.4
	C104.4,24.2,104.5,24,104.7,23.8z M72.3,23.8c-0.2-0.2-0.4-0.4-0.4-0.4C71.9,23.4,72,23.6,72.3,23.8c0.1,0.2,0.3,0.4,0.3,0.4
	C72.6,24.2,72.4,24,72.3,23.8z M92.4,25.9l0-0.8l-0.3-0.3c-0.1-0.2-0.3-0.3-0.3-0.3c0,0.4-0.1,1.1,0,0.8l0,2.2h0.6
	c0-0.4,0-0.8,0-0.8C92.4,26.8,92.4,26.3,92.4,25.9L92.4,25.9L92.4,25.9z M83.3,27.5c-0.2,0-0.6,0-0.8,0c-0.2,0,0,0,0.4,0
	C83.3,27.5,83.5,27.5,83.3,27.5z M92.4,28c0-0.1,0-0.1-0.4-0.1h-0.4l-0.5,0.5c0.2,0.2,0.3,0.4,0.5,0.5C92,28.7,92.2,28.3,92.4,28z
	 M85.8,28.4l-0.2-0.3l-0.3-0.3c-0.3-0.1-0.7,0.1-0.8,0.1c0,0.1,0.1,0.3,0.4,0.5c0.2,0.2,0.4,0.4,0.4,0.4L85.8,28.4z M128.6,28.5
	l0.5-0.6h-0.5h-0.5l-0.3,0.3l-0.3,0.3l0.2,0.2c0.1,0.1,0.2,0.3,0.3,0.3S128.3,28.9,128.6,28.5z M49.4,28.6l-0.3-0.3L48.8,28h-0.5
	h-0.5l0.6,0.6c0.3,0.3,0.6,0.6,0.6,0.6L49.4,28.6z M95.7,28.4C95.3,28,95,27.7,95,27.7c0,0,1.3,1.5,1.4,1.5
	C96.4,29.2,96.1,28.8,95.7,28.4z M81.3,28.5c0.4-0.4,0.7-0.7,0.7-0.8C82,27.7,81.6,28,81.3,28.5c-0.5,0.4-0.8,0.7-0.7,0.7
	C80.6,29.2,80.9,28.9,81.3,28.5z M127.3,28.4l0.4-0.4l0.4-0.4V27v-0.6v-0.2v-0.9v-0.9l-0.7-0.8l-0.7-0.8h-3.3l-1,1.1
	c-0.3,0.4-0.9,1-1.1,1.2c0,0,0,1.1,0,2.5V30h1l3.7,0l1.4-1.5l-0.8-0.9l0.2-0.1L127.3,28.4z M111.4,29v-1.1h-1h-1l-1,1.1l-1,1.1h2.1
	h2.1V29z M108,28.9l1.1-1.2v-0.6v-2.9l-0.7-0.7l-0.7-0.7h-0.9h-0.9l-0.8,0.8l-0.8,0.8v0.9l0,2.3l1.2,1.2c0.7,0.8,1.2,1.2,1.3,1.2
	C106.8,30,107.2,29.6,108,28.9z M102.3,30C102.3,29.9,102.3,29.9,102.3,30c0.2,0.1,1.3,0.1,1.3,0c0,0,0.1,0,0.1,0c0,0,0.1,0,0,0
	c0,0,0.5,0.1,1.2,0.1l1.3,0l-1.1-1.1l-1.1-1.1h-1h-1l0,1.1C102.1,29.9,102.2,30.1,102.3,30C102.3,30.1,102.3,30,102.3,30L102.3,30
	L102.3,30z M92.4,29.2c0-0.5,0-0.8,0-0.8l-0.6,0.6v1h0.7L92.4,29.2L92.4,29.2z M91.5,29.1L91,28.5l-1.4,1.5l0.6,0h1.3V29.1
	L91.5,29.1z M87.4,30.1L86,28.5l-0.5,0.5v1L87.4,30.1z M85.2,29.1c-0.2-0.2-0.4-0.4-0.6-0.6c0,0,0,0.4,0,0.8V30h0.7L85.2,29.1z
	 M74.5,30C74.6,29.9,74.6,29.9,74.5,30c0.1,0,0.1,0.1,0.2,0.1c0.1,0,0.1-0.2,0.1-1.1l0-1.1h-2l-1.1,1.1l-1.1,1.1
	C72,30,73.3,30,74.5,30L74.5,30z M71.4,28.8l1.2-1.2l0-2.3v-0.9l-0.8-0.8L71,22.8h-0.9h-0.9l-1.4,1.4v2.9v0.6l1.1,1.2
	c0.7,0.8,1.1,1.2,1.2,1.2C70.2,30,70.7,29.6,71.4,28.8z M68.7,29l-1-1.1h-1h-1V29V30h2.1h2.1L68.7,29z M55.8,27.6c0-1.4,0-2.5,0-2.5
	L55.7,25l-1-1.1l-1-1.1h-2.5h-0.9l-1.5,1.5v0.9V27v0.6l0.4,0.4l0.4,0.4L50,28l0.4-0.4l0.1,0.1c-0.2,0.3-0.2,0.4-0.8,0.9l1.4,1.5
	l4.7,0V27.6z M127.6,29l-0.2-0.3l-1.4,1.5l1.9,2l0-3L127.6,29L127.6,29L127.6,29z M50.3,29.5l-0.7-0.8l-0.5,0.5v1.5v1.5l1.9-2
	L50.3,29.5z M95.7,31.8l0.6-0.6v-0.8v-0.8l-0.7-0.8l-0.7-0.8h-1c-0.7,0-1,0-1,0.1c0,0.1-0.1,0.4-0.1,1.1v1l1.1,1.2
	c0.6,0.7,1.1,1.2,1.1,1.2C95.1,32.4,95.3,32.1,95.7,31.8z M90.4,31.9l-0.5-0.6l-0.5,0.6l-0.5,0.6h1.1H91L90.4,31.9z M89.2,31.8
	l0.6-0.6l-0.3-0.3l-0.3-0.3h-1.4l-0.3,0.3l-0.3,0.3l0.6,0.6c0.3,0.4,0.6,0.6,0.7,0.6C88.5,32.4,88.8,32.1,89.2,31.8z M87.6,31.9
	L87,31.3l-0.5,0.6L86,32.4H87h1.1L87.6,31.9z M83,31.3l1.1-1.2v-1c0-0.7,0-1.1-0.1-1.1c0,0-0.3-0.1-1-0.1h-1l-0.7,0.8l-0.7,0.8v0.8
	v0.8l0.6,0.6c0.3,0.4,0.6,0.6,0.6,0.6C81.9,32.4,82.4,31.9,83,31.3L83,31.3z M113,32.2l-0.8-0.9l-0.8-0.8h-2.1h-2.1l1.1,1.1l1.1,1.1
	h1.5h1.5L113,32.2z M93.5,31.6c-1.2-1.3-0.9-0.9-1.1-1.1l-0.6,0l0,1.1v0.7l0.2,0.2l0.2,0.2h1.2h1.2L93.5,31.6L93.5,31.6z M85,32.6
	l0.2-0.2v-0.7v-0.7l0-0.4l-0.6,0c-0.3,0.2-0.5,0.5-1.1,1.1l-1.1,1.1h1.2h1.2L85,32.6z M68.6,31.6l1.1-1.1h-2.1h-2.1l-0.8,0.8
	L64,32.2l0.5,0.6H66h1.5L68.6,31.6z M132.1,32.2l0.7-0.7v-1v-1l-0.7-0.7l-0.7-0.7h-2l-0.6,0.6l-0.6,0.6c0,1.1,0,2.3,0,3.4
	c0,0,0,0.1,0,0.1c0,0.1,0,0.1,1.6,0.1h1.6L132.1,32.2L132.1,32.2z M48.7,32.8c0-0.1,0-0.1,0-0.1c0,0,0-0.7,0-1.7v-1.7l-0.6-0.6
	L47.5,28h-1h-1l-0.7,0.7l-0.7,0.7v1v1l1.4,1.4h1.6C48.7,32.9,48.7,32.9,48.7,32.8L48.7,32.8z M100.6,32.6l-0.2-0.2l-0.1,0.1
	l-0.1,0.1l0.2,0.2l0.2,0.2l0.1-0.1l0.1-0.1L100.6,32.6z M76.7,32.5l-0.1-0.1l-0.2,0.2l-0.2,0.2l0.1,0.1l0.1,0.1l0.2-0.2l0.2-0.2
	L76.7,32.5z M96.4,31.9l0-0.5L95.8,32l-0.6,0.6l0.2,0.3l0.3,0.3l0.3-0.4l0.3-0.4L96.4,31.9z M81.7,32.6c0,0-0.3-0.3-0.6-0.6
	l-0.6-0.6l0,0.5l0,0.5l0.3,0.4l0.3,0.4C81.4,33,81.6,32.8,81.7,32.6L81.7,32.6z M132.4,33.1l0.3-0.4l0-0.5l0-0.5l-0.6,0.6l-0.6,0.6
	l0.2,0.2c0.1,0.1,0.2,0.2,0.3,0.2C132.1,33.5,132.2,33.3,132.4,33.1z M45.4,33l-1.2-1.3l0,1c0.2,0.3,0.5,0.5,0.7,0.7
	c0,0,0.1-0.1,0.3-0.2L45.4,33z M102.2,33.2c0.1-0.1,0.2-0.2,0.2-0.2c0,0-0.3,0-0.7,0c-0.6,0-0.7,0-0.8,0.1c0,0-0.1,0.1-0.1,0.1
	c0,0,0.2,0.2,0.3,0.4l0.3,0.4l0.3-0.3C101.9,33.5,102.1,33.3,102.2,33.2z M76.2,33.2c0,0,0-0.1-0.1-0.1c-0.5-0.2-1,0-1.5-0.1l0.9,1
	l0.3-0.4C76.1,33.4,76.2,33.3,76.2,33.2z M98.5,33.6l0.8-0.8h-0.6h-2.2L96.2,33l-0.3,0.3l0.6,0.6l0.5,0.6h0.6
	C97.8,34.2,98.2,33.9,98.5,33.6z M81.1,33.4L80.8,33l-0.3-0.3l-0.7,0l-1.5,0h-0.6l0.8,0.8c0.4,0.5,0.8,0.8,0.8,0.8l0.4,0.3l0.3-0.3
	L81.1,33.4z M95.2,33.6c0,0-0.1-0.2-0.2-0.3L94.8,33h-1.2h-1.2l0.9,0.9l0.9,0.9l0.6-0.6C95,33.9,95.2,33.6,95.2,33.6z M83.4,33.1
	l-1.2,0c-0.2,0.2-0.3,0.4-0.5,0.6l1.2,1.3l0.8-0.9l0.9-0.9L83.4,33.1L83.4,33.1z M131.2,34.4l0.7-0.8l-0.5-0.5H130h-1.5l1,1
	c0.5,0.6,1,1,1,1C130.5,35.2,130.8,34.8,131.2,34.4z M47.5,34.2l1-1H47h-1.5L45,33.7l0.7,0.8c0.4,0.4,0.7,0.8,0.8,0.8
	C46.5,35.2,47,34.7,47.5,34.2z M104.8,37.4c0,0,0.1-0.1,0.1-0.1c0,0-0.2-0.2-0.3-0.4l-0.3-0.4l-0.5,0.5c-0.2,0.3-0.5,0.5-0.5,0.5
	c0,0,0.3,0,0.7,0C104.6,37.5,104.8,37.4,104.8,37.4z M103.5,36.9l0.5-0.6v-1.7V33h-0.7h-0.7l-0.5,0.6c-0.3,0.3-0.5,0.6-0.5,0.6v0.2
	v0.9v1.6v0.6h0.7h0.7L103.5,36.9z M75.4,36.9c0-1.9,0-2.7,0-2.7L74.3,33h-0.7h-0.7v3.3l0.5,0.6l0.5,0.6h0.7h0.7V36.9z M73.6,37.4
	c0,0-0.2-0.2-0.5-0.5l-0.5-0.5l-0.3,0.4C72.2,37,72,37.2,72,37.2c0,0,0,0.1,0.1,0.1c0.1,0.1,0.2,0.1,0.8,0.1
	C73.3,37.5,73.6,37.5,73.6,37.4z M138,38.7l0.4-0.5h-0.8l-0.5,0.6c0.1,0.1,0.2,0.3,0.4,0.4C137.5,39.3,137.8,39,138,38.7z
	 M39.8,38.9l-0.6-0.6h-0.8l0.4,0.5c0.2,0.2,0.5,0.5,0.6,0.5L39.8,38.9z M128.7,38.6l0.7-0.7c-0.4-0.4-0.8-0.8-1.1-1.2
	c0,0-0.3,0.3-0.7,0.7l-0.7,0.7l0.6,0.6c0.3,0.3,0.6,0.6,0.6,0.6C128,39.3,128.3,39,128.7,38.6z M49.5,38.7l0.6-0.6l-0.6-0.7
	c-0.4-0.4-0.7-0.7-0.7-0.7c0,0-0.3,0.3-0.6,0.6l-0.6,0.6l0.7,0.7c0.4,0.4,0.7,0.7,0.7,0.7C49,39.3,49.2,39,49.5,38.7z M137.3,41.6
	v-1.1v-1.1L137,39l-0.6,0.7c-0.3,0.4-0.8,0.9-0.8,0.9c0,0,0.2,0.3,0.4,0.4c0.3,0.4,0.6,0.7,1,1L137.3,41.6z M40.4,41.7
	c0.4-0.4,0.6-0.7,1-1.1c0,0-0.4-0.5-0.8-0.9L39.9,39l-0.2,0.2l-0.2,0.2v1.1v1.1c0.1,0.2,0.3,0.3,0.5,0.5
	C40.1,42,40.2,41.9,40.4,41.7z M137.3,41.9l-0.3,0.3c0.1,0.1,0.2,0.2,0.3,0.3L137.3,41.9z M39.9,42.2l-0.3-0.3c0,0.2,0,0.5,0,0.7
	L39.9,42.2z M136.8,42.4l-0.4,0.4h0.7L136.8,42.4z M43.9,41.8c0,0-0.2,0.2-0.7,0.7L43,42.8h0.9C44,42.5,43.9,42.2,43.9,41.8z
	 M43.3,42.2l0.6-0.6v-0.7h-2.3l-1.3,1.4l0.5,0.6c0.6,0,1.2,0,1.7,0C42.7,42.8,42.9,42.6,43.3,42.2L43.3,42.2z M40.1,42.4l-0.4,0.4
	h0.7L40.1,42.4z M142.2,42.8c0-0.3-0.1,0,0-0.2c0-0.2,0-0.4,0-0.4c0,0-0.9,1-1,1.1c0,0,0.2,0.3,0.2,0.3L142.2,42.8L142.2,42.8z
	 M138.5,43.5l-0.4,0c0.1,0.2,0.2,0.3,0.2,0.3C138.4,43.7,138.5,43.5,138.5,43.5z M38.8,43.5c-0.2,0-0.3,0-0.4,0c0,0,0.2,0.2,0.2,0.2
	L38.8,43.5z M102.2,43.2c0.1-0.1,0.2-0.2,0.2-0.2c0,0-0.2,0-0.4,0h-0.4v0.4v0.4l0.2-0.2C101.9,43.4,102.1,43.3,102.2,43.2z
	 M75.4,43.4V43H75c-0.2,0-0.4,0-0.4,0c0,0,0.7,0.8,0.7,0.8C75.4,43.8,75.4,43.6,75.4,43.4L75.4,43.4z M137.9,43.7v0.5l0.2-0.2
	L137.9,43.7z M39,43.7l-0.2,0.2c-0.1,0.1,0.1,0.1,0.2,0.2L39,43.7z M137.5,43.3c-0.1-0.1-0.2-0.1-0.5-0.1h-0.4l1,1.1l0-0.4
	C137.6,43.4,137.6,43.4,137.5,43.3z M39.9,43.1c-0.3,0-0.4,0-0.5,0.1c-0.1,0.1-0.1,0.2-0.1,0.6v0.4l1-1.1L39.9,43.1z M96.9,42.7
	v-2.2h-2.6l-2.1,2.2l-2.1,2.2h3.4h3.4V42.7z M84.8,42.7l-2.1-2.2l-1.3,0H80v2.2v2.2h3.4h3.4L84.8,42.7L84.8,42.7z M141.3,43.8
	c0,0-0.1-0.1-0.1-0.2l-0.1-0.1h-1.1h-1.1l-0.4,0.4l0.3,0.4c0.3,0.4,0.7,0.7,1,1C140.4,44.8,140.8,44.3,141.3,43.8z M38.1,44.2
	l0.3-0.4l-0.4-0.4H37h-1.1l-0.3,0.3c0.5,0.6,0.7,0.7,1.5,1.5C37.5,44.9,37.8,44.6,38.1,44.2z M132.8,42.9v-0.7l0-1.4l-1.7,0l-0.4,0
	l-1.2,1.2l-1.1,1.1c0.6,0.7,1.3,1.4,1.9,2L132.8,42.9L132.8,42.9z M126.4,44.5l0.7-0.7l0.6-0.7l-1.3,0h-1.7l-0.8,0.8l-0.8,0.8v0.5
	h1.3h1.3L126.4,44.5z M53.7,45v-0.2L53,43.9l-0.8-0.8h-0.9h-0.9l-1.3,0l0.6,0.6l1.3,1.4h1.3h1.3V45z M102.3,47.4l-0.7-0.8v0.8
	C101.8,47.4,102.1,47.4,102.3,47.4z M75.4,47v-0.4L75,47c-0.2,0.2-0.4,0.4-0.4,0.4c0,0,0.2,0,0.4,0h0.4V47z M39,47.2l-0.6,0.6H39
	C39,47.6,39,47.4,39,47.2L39,47.2z M101.3,47.6l0-0.9c-0.2,0.2-0.4,0.4-0.6,0.7l-0.4,0.4l0.4,0.4C100.9,47.9,101.1,47.8,101.3,47.6
	L101.3,47.6z M76.6,47.7c-0.2-0.3-0.8-0.8-0.9-0.9l-0.1-0.1v0.5c0,0.3,0,0.5,0,0.4c0,0,0.1,0.1,0.3,0.3l0.3,0.3l0.2-0.2
	C76.6,47.8,76.6,47.7,76.6,47.7z M147.6,48.9l0.5-0.6h-0.5h-0.5l-0.6,0.7c0.2,0.2,0.3,0.3,0.5,0.5C147,49.5,147.3,49.2,147.6,48.9z
	 M30.4,49l-0.6-0.7h-1c0.4,0.4,0.7,0.8,1.1,1.2L30.4,49z M130.3,47.7v-2.2c-0.6-0.7-1.3-1.4-2-2.1c0,0-0.5,0.5-1.1,1.1l-1,1.1
	c1.4,1.5,2.7,2.9,4.1,4.4C130.3,50,130.3,49,130.3,47.7L130.3,47.7z M48.7,43.4c0,0-0.5,0.5-1,1.1l-1,1.1v2.2V50l2.1-2.2l2.1-2.2
	C50.1,44.8,49.4,44.1,48.7,43.4z M99.3,49.6c0.4-0.4,0.4-0.5,0.4-0.6c0-0.2,0-0.2-0.3-0.5L98,46.8l-1-1.1h-3.3h-3.3l2,2.1l2,2.1h4.7
	L99.3,49.6z M84.7,47.9l2-2.1h-3.3H80l-1,1.1l-1.5,1.6c-0.3,0.3-0.3,0.4-0.3,0.5c0,0.2,0,0.2,0.4,0.6L78,50h2.3h2.3L84.7,47.9z
	 M135.7,50l1.9-2l0-1.4v-0.9v-0.9l-0.7-0.8l-0.7-0.8h-1l-1,0l-1.2,0l-0.3,0.3l-0.7,0.7l-0.6,0.6l-0.4,0.4l-0.4,0.4V48v2.4h2.3h2.3
	L135.7,50L135.7,50L135.7,50z M125.8,46h-1.3h-1.3v0.2c0,0.6,0,1.2,0,1.8l2.3,2.4h4.4l-2.1-2.2L125.8,46z M53.7,48.1l0-2.1h-1.3
	h-1.3l-2.1,2.2L47,50.5h2.2h2.2C52.1,49.6,52.9,48.9,53.7,48.1z M101.8,50.9l-1.6-1.8c-0.3,0.4-0.7,0.7-1,1.1
	c0.3,0.4,0.8,0.9,1.2,1.3l1,1.1h1h1L101.8,50.9z M76.6,51.5l1.2-1.3c-0.3-0.3-0.4-0.5-0.9-1l-0.1-0.1l-1.6,1.8l-1.6,1.7h1h1
	L76.6,51.5z M138.6,51.7c1-1.1,0.7-0.8,1.1-1.2l0-2.4l-1.8,0l-2.3,2.5c0.7,0.7,1.4,1.4,2,2.1C137.6,52.7,138,52.2,138.6,51.7z
	 M146.4,49.1c-0.5,0.5-0.9,1.1-1.4,1.6c-0.1,0.1-0.1,0.2,0.9,1.1l0.9,1l0-1.6l0-1.6L146.4,49.1z M31.9,50.7
	c-0.2-0.4-0.5-0.6-0.8-0.9l-0.6-0.7l-0.5,0.5v3.3l1-1C32,50.8,32,50.8,31.9,50.7z M151,52.4l0.8-0.8v-0.9v-0.9l-0.7-0.8l-0.7-0.8h-1
	h-1l-0.6,0.6l-0.6,0.6v1.7c0,1.7,0,1.7,0.1,1.8l0.1,0.1h1.5h1.5L151,52.4z M29.7,53.1l0.1-0.1v-3.4l-1.3-1.3h-1h-1l-1.4,1.6v1.8
	l0.8,0.8l0.7,0.8C27.6,53.3,28.7,53.2,29.7,53.1z M151.8,52.5c0-0.3,0-0.5,0-0.5c0,0-0.3,0.3-0.7,0.7l-0.6,0.7l0.2,0.3l0.3,0.3
	l0.4-0.5l0.4-0.4V52.5z M26.5,53.3c-0.1-0.1-1.1-1.1-1.2-1.3l-0.1-0.1v1l0.8,0.9C26.2,53.7,26.3,53.5,26.5,53.3z M143.6,53.1
	l-0.6-0.7c-0.3-0.4-0.6-0.6-0.6-0.6l-1.2,1.3c0.4,0.4,0.8,0.9,1.2,1.3L143.6,53.1z M35.2,53.8l0.6-0.6l-0.6-0.6
	c-0.3-0.3-0.6-0.6-0.6-0.6c0,0-0.3,0.3-0.6,0.6l-0.6,0.7l0.6,0.6c0.3,0.4,0.6,0.6,0.6,0.6C34.6,54.4,34.8,54.2,35.2,53.8z
	 M136.3,54.1l1.1-1.2c-0.7-0.7-1.3-1.4-1.9-2.1c-0.1-0.1-0.2-0.1-2.3-0.1h-2.2L133,53c1.1,1.2,2.1,2.2,2.1,2.2
	S135.7,54.7,136.3,54.1L136.3,54.1z M43.9,53l2.1-2.2h-2.2c-2.1,0-2.2,0-2.3,0.1c-0.4,0.4-0.7,0.7-1,1.1l-0.9,1l1.1,1.2
	c0.6,0.6,1.1,1.2,1.1,1.2C41.8,55.3,42.8,54.2,43.9,53z M150.8,54c0,0-0.1-0.2-0.2-0.3l-0.2-0.3H149h-1.3l0.9,1l0.9,1l0.7-0.7
	C150.5,54.4,150.8,54,150.8,54z M26.6,53.5c-0.2,0.2-0.3,0.4-0.5,0.6c0,0,0.3,0.3,0.7,0.7l0.7,0.7l0.9-1l0.9-1L26.6,53.5z
	 M99.8,57.8l0.8-0.8l0.8-0.8l0-3.3c-0.8-0.8-1.5-1.6-2.3-2.4l-4.7-0.1v5l2.2,2.4H99.8z M79.7,57.8l0.7,0l1.1-1.2l1.1-1.2v-2.5v-2.5
	h-2.3c-1.8,0-2.3,0-2.4,0.1c0,0,0,0.1,0,0.2c0,0.2,0,0.2,0,0c-0.1-0.1-0.1-0.1-1.1,1l-1.1,1.1l0,0.7l0,2.6l0.7,0.8l0.8,0.8H78
	L79.7,57.8L79.7,57.8z M136.9,57.3l0.7-0.8v-3l-2.1,2.2v2.4h0.6L136.9,57.3z M134.8,58.1v-2.4l-2.1-2.2l-2-2.2v2.2v2.2l2.2,2.3
	H134.8z M128.1,58.1l2.2-2.3v-2.4v-2.4h-4.6l-1.2,1.3l-1.2,1.3v3l1.5,1.6L128.1,58.1z M52.2,58.1l1.5-1.6v-3.1l-1.2-1.3l-1.2-1.3
	l-2.3,0h-2.3v2.4v2.4l1.1,1.2l1.1,1.2h0.6L52.2,58.1z M44.1,58.1l2.2-2.3v-2.2v-2.2l-2,2.2l-2.1,2.2v2.4H44.1z M41.4,56.9v-1.2
	l-0.8-0.8l-0.8-0.8l-0.6-0.7l0,3.1l1.4,1.5h0.6V56.9z M155.5,59.5l1.1-1.2v-3.5l-0.7-0.8l-0.7-0.8h-3.2l-0.4,0.4l-0.4,0.4l0.7,0.8
	l-0.1,0.2l-0.8-0.8l-1.3,1.4l0,5h2.3h2.3L155.5,59.5L155.5,59.5z M20.1,63.7l-0.7,0l0.7,0.7C20.1,64.2,20.1,63.9,20.1,63.7
	L20.1,63.7L20.1,63.7z M157.5,68l-0.7-0.7v0.7C157.1,68.1,157.3,68,157.5,68z M20.1,67.3l-0.7,0.7h0.7v-0.4
	C20.1,67.6,20.1,67.5,20.1,67.3z M156.2,73l-0.4-0.4c-0.1,0.1-0.2,0.3-0.4,0.4c0,0,0.2,0.3,0.5,0.6l0.5,0.7l0-0.9L156.2,73z
	 M21.5,73l-0.4-0.4l-0.7,0.8l0,1C20.8,74,21.1,73.4,21.5,73z M142.9,74.2 M157.7,73.6l-0.8,0v0.9C157.1,74.2,157.4,73.9,157.7,73.6z
	 M20.1,73.6l-0.8,0l0.8,0.8C20.1,74.1,20.1,73.8,20.1,73.6L20.1,73.6z M148.4,70.1l-0.9-0.9l-0.3,0.3l0,1.8l0,1.8l1,1.1l1,1.1l0-2.1
	l0-2.1L148.4,70.1L148.4,70.1z M29.7,71.3l0-1.8l-0.3-0.3l-0.9,0.9L27.7,71v2.1v2.1l2-2.1V71.3L29.7,71.3z M157.6,78l-0.8-0.8v0.8
	C157.1,78.1,157.4,78,157.6,78z M20.1,77.2l-0.8,0.8h0.8C20.1,77.8,20.1,77.5,20.1,77.2z M19.6,77.5l0.5-0.6c0-0.5,0-1.4,0-2.1
	c-0.1-0.1-0.2-0.1-0.2-0.2L19,73.5h-1h-1l-0.8,0.8l-0.8,0.8v1.3l0.7,0.8l0.7,0.8H19L19.6,77.5z M155.2,78.4l0.4-0.4
	c0.3-0.3,0.4-0.5,0.4-0.5c0-0.1,0.4-0.2,0.5-0.4l0-0.3v-0.9l0-1l-1.4-1.6h-0.9c-0.8,0-1.5,0-2.3,0c-0.1,0-0.1-0.2-0.1-1.1v-1h-1.1
	h-1.1v2.1v2.1l1-1.1c1-1.1,1-1.1,1.1-1l0.1,0.1l-1.1,1.2l-1.1,1.2V76l1.1,1.2l1.1,1.2H155.2z M156.6,78.2v-1l-0.6,0.6l-0.6,0.6
	c0.1,0.2,0.3,0.3,0.4,0.5L156.6,78.2z M21.6,78.5l-1.2-1.3v1c0.2,0.3,0.5,0.5,0.8,0.8L21.6,78.5z M151.8,78.6l-1.1-1.1l-1.1-1.1v2.1
	v2.1h1.1h1.1V78.6z M27.3,76.4l-2.1,2.3v2h2.1V76.4z M149.2,78.5v-2.1l-1,1.1l-1,1.1v1.6v1.7l0.4,0.4l1.6-1.8V78.5z M29.8,78.6
	l-2-2.2v4.2l1.6,1.8l0.4-0.4V78.6z M157.5,83.6l-0.7,0v0.7C157.1,84.1,157.3,83.8,157.5,83.6z M20.1,83.6c0,0-0.2,0-0.3,0l-0.3,0
	l0.3,0.3l0.3,0.3l0-0.3C20.1,83.7,20.1,83.6,20.1,83.6L20.1,83.6z M20.1,87.3l-0.6,0.7h0.6C20.1,87.7,20.1,87.5,20.1,87.3z
	 M150.7,98l0.2-0.3l-0.8-0.8l-0.8-0.8l-1,1.1l-1,1.1h3.1L150.7,98z M28.5,97.2l-1-1.1L26.7,97L26,97.8l0.5,0.5H28h1.5L28.5,97.2z
	 M155.1,98.4l1.5-1.6v-2.7v-0.7c-0.8-0.8-1.5-1.6-2.3-2.4h-4.6l0,5l1.5,1.6l0.7-0.8l0.1,0.2l-0.7,0.8l0.6,0.6H155.1z M151.8,99.2
	l0-0.5l-0.3-0.4l-0.4-0.3l-0.2,0.3l-0.2,0.3c0.3,0.5,0.8,0.8,1.1,1.3C151.8,99.7,151.8,99.5,151.8,99.2z M25.9,97.9l-0.7,0.7l0,1.1
	l1.2-1.3L25.9,97.9z M146.9,102v-1.5V99l-1,1l-1,1l0.7,0.8c0.4,0.4,0.7,0.8,0.7,0.8L146.9,102z M31.3,101.8L32,101l-1-1l-1-1v3
	c0.2,0.2,0.4,0.4,0.5,0.6C30.5,102.5,30.9,102.2,31.3,101.8z M151.1,102.8l0.7-0.8v-1v-1l-0.6-0.7l-0.6-0.7c-1.1,0-2.2,0-3.3,0.1
	c0,0-0.1,0.5-0.1,1.7v1.6l0.7,0.8l0.7,0.8h1.8L151.1,102.8z M148.3,103.5c0,0-0.3-0.3-0.6-0.7l-0.6-0.6l-0.5,0.6l0.4,0.4l0.4,0.4
	h0.5C148.1,103.5,148.3,103.5,148.3,103.5L148.3,103.5z M30,103.1l0.4-0.4l-0.5-0.6l-0.6,0.6c-0.3,0.4-0.6,0.7-0.6,0.7
	c0,0,0.2,0,0.5,0h0.5L30,103.1z M29,102.7l0.7-0.8c0-1.1,0-2.2-0.1-3.3c0,0-0.5-0.1-1.7-0.1h-1.6l-1.3,1.5v1v1l1.4,1.5h1.8L29,102.7
	z M137.4,108.7l1.9-2l0.4-0.4v-2.5v-2.5l-2.2-2.4l-2.2-2.4l-2.2,2.4l-2.2,2.4v2.5v2.5l2.4,2.4l1.1,0L137.4,108.7L137.4,108.7z
	 M127.5,108.6h0.6l1.1-1.1l1.2-1.2v-2.5v-2.5h-4.7l-2.2,2.4v2.5v0.9l0.7,0.8l0.7,0.8h0.9H127.5z M52,108.6l0.7-0.8l0.7-0.8v-2.7
	v-0.7l-2.2-2.4h-4.7v2.5v2.5l2.3,2.4H52z M43.7,108.9H43c0.2,0.3,0.5,0.5,0.7,0.8L43.7,108.9z M40.3,108.9h-0.8c0,0.3,0,0.5,0,0.8
	L40.3,108.9z M161.5,75.8v-0.7l-0.8-0.8l-0.8-0.8h-1h-1c-0.4,0.3-0.8,0.8-1.1,1.2l-0.1,2.2l1.1,1.2h1h1.1l1.5-1.6 M112.9,23.9
	l-0.8,0.9l-0.3,0.3l0,1.3v1.2h0.8l0.6-0.6c0.2-0.3,0.4-0.4,0.6-0.7c0.2,0.1,0.2,0.1,0.2,0.1l-0.7,0.7l-0.6,0.6l0.7,0.8l0.7,0.8
	l-0.1,0.2l-0.7-0.8l-0.7-0.8h-0.8V29v1.1l0.8,0.9c0.4,0.5,0.8,0.8,0.8,0.8l0.6-0.5l0.1,0.2l-0.5,0.6l1.2,1.2c0.6,0.6,1,1.1,1.6,1.6
	c0,0,1-1.1,2.3-2.4l2.2-2.4v-2.5v-2.5l-0.3-0.4c-0.4-0.4-0.8-0.9-1.2-1.3l-0.7-0.7l-0.9,0l0.7,0.7l0.7,0.7l-0.2,0.1l-0.8-0.8
	l-0.8-0.8h-2.1c-0.4,0.4-0.9,1-1.3,1.4c0.1,0-0.2,0-0.2,0s0.1-0.2,0.2-0.2l1.1-1.1l-1,0C113.6,23.1,113.2,23.5,112.9,23.9
	L112.9,23.9z M103.1,32.4l-0.1,0.2c-0.1,0.1,0,0.1,0.6,0.1c0.5,0,0.7,0,0.7-0.1c0-0.1,0.2-0.2,0.2-0.2l0.9-0.9l0.9-0.9h-1.4
	c-1,0-1.8,0-2.7,0l-0.3,0.3l-0.2,0.2l-0.6,0.6l-0.6,0.6l0.2,0.2l0.2,0.2h0.9h0.9l0.2-0.2l0.2-0.2L103.1,32.4z M87,27.3l-0.1,0.3
	l-0.7,0.7l0.3,0.4l0.8,0.9l0.4,0.5h1.4l1.6-1.7l-0.4-0.4L90,27.5l0-0.2l0.1,0l0.8,0.9l0.5-0.5v-0.6v-0.6v-0.2v-1.1v-1.1l-0.7-0.7
	L90,22.8h-0.5h-2.6l-0.7,0.7l-0.7,0.7v2.9v0.6l0.2,0.2c0.1,0.1,0.2,0.2,0.2,0.2c0,0,0.2-0.2,0.4-0.4l0.4-0.4L87,27.3z M76.3,42.2
	l-0.7,0.7l0,0.5l0,0.5l0.7-0.7l0.7-0.7l0.1,0l0,0.2l-0.8,0.8l-0.8,0.8v1.1v1.1l0.6,0.6c0.3,0.3,0.6,0.6,0.6,0.6c0,0,0.6-0.6,1.3-1.3
	l1.2-1.3V44v-2.8v-0.7h-0.6H78l-0.4,0.4L76.3,42.2L76.3,42.2z M71.7,38l0.4-0.4L72,37.5l-0.1-0.1l-0.3,0.3c-0.2,0.2-0.3,0.4-0.3,0.5
	c0,0.1-0.1-0.3-0.1-0.3l0.3-0.3c0.2-0.2,0.3-0.3,0.3-0.4c0,0-0.3-0.3-0.6-0.6L70.6,36l0-0.2l0.1,0l0.6,0.6c0.3,0.3,0.6,0.6,0.6,0.6
	c0,0,0.2-0.2,0.4-0.4l0.3-0.4V33l-0.2-0.2l-0.2-0.2l-1-1.1c-0.6-0.6-1-1-1-1c-0.1,0-0.5,0.4-1.2,1.2l-1.1,1.2v3.6l1.5,1.6l0,0.2
	l-0.2,0c-0.4-0.4-1.4-1.6-1.5-1.6l-1.5,1.6l-0.1,0l0-0.2l1.5-1.6v-3.4H66h-1.6l-0.8,0.8L63,34.7l-0.1,0l0-0.2l0.8-0.8l0.8-0.8
	l-0.5-0.6l-1,1.1L61.4,35l-0.3,0.3v4.8v4.8l4.4,4.7c4.4,4.7,4.4,4.7,4.6,4.7c0.2,0,0.2,0,1-0.9c0.4-0.5,0.8-0.9,0.8-0.9l-1.4-1.5
	l0.1-0.2l0.7,0.8l0.7,0.8l1.1-1.1l2-2.1l0.9-0.9l-0.3-0.3l-0.3-0.3l-0.6,0l-0.6,0l-0.2,0.2L74,48.1l-0.1,0l0.2-0.3
	c-0.2,0-0.7,0-0.9,0c-0.5,0-0.9,0-1,0c0,0,0,0.3,0,0.2c-0.1-0.1-0.1,0-0.7,0.7l-0.7,0.7l-0.1-0.2l0.7-0.7l0.8-0.9l-0.7-0.8L70.6,46
	l0.1-0.1l0.7,0.8l0.7,0.8h1.1h1.1l0.5-0.5l0.5-0.5v-1.1v-1.1l-0.5-0.6L74.3,43h-1h-1l-0.8,0.8l-0.8,0.8l-0.2-0.1l1-1.1l0.5-0.5
	L71.3,42c-0.4-0.4-0.7-0.7-0.7-0.7c0,0,0.1-0.2,0.1-0.2l0.7,0.7c0.4,0.4,0.7,0.7,0.7,0.7c0,0,0.1,0.1,0.1,0.2c0,0,0.4,0,0.9,0
	c0.9,0,0.9,0,0.8-0.1c-0.1-0.1-0.1-0.3-0.1-0.3l0.1,0l0.2,0.2l0.2,0.2h0.6h0.6l0.8-0.8l1.5-1.7l-1.1-1.2l-0.9-1l-0.2-0.2
	c0-0.1-0.1-0.1-0.7-0.1c-0.6,0-0.6,0-0.6,0.1c0.1,0.1,0.1,0.2,0.1,0.2l-0.1,0l-0.2-0.2L74,37.8h-0.9h-0.9c-0.5,0.5-1,1-1.4,1.5
	c-0.1-0.1-0.2-0.1-0.2-0.1l0.2-0.2 M80.3,35L80,35.3l0,0.8l0,0.8l0,0.2v1.5v1.5h1.3h1.3v-0.9v-0.9V38v-1.5v-1.5l-1.2-1.3l-0.4,0.4
	L80.3,35z M77.7,34.5l0,0.2l-0.1,0l-1.1-1.1l-0.4,0.4l-0.4,0.4v2.5v0.7l0.2,0.1L77,39l1,1h0.6h0.6v-2.4v-2.4
	c-0.3-0.3-0.4-0.4-0.6-0.6c-0.2-0.2-0.2-0.2-0.2-0.2l-0.7-0.8L77,32.9l-0.2,0.2l-0.2,0.2L77.7,34.5z M74.8,30.5l-4.2,0l0.9,0.9
	l0.9,0.9l0.2,0.2c0,0.1,0.2,0.1,0.7,0.1c0.6,0,0.6,0,0.6-0.1c-0.1-0.1-0.1-0.2-0.1-0.2l0.1,0l0.2,0.2l0.2,0.2H76l0.2-0.2l0.2-0.2
	l-0.6-0.6L75.2,31L74.8,30.5z M73.7,24l-0.3-0.3c-0.2,0.2-0.3,0.4-0.5,0.6v0.2v1V27v0.5h1.9v-1.2c0-0.8,0-1.2-0.1-1.2L73.7,24z
	 M84.5,27.3v0.3h0.8v-0.7l0-1.6c0-0.4,0-0.8-0.1-0.8c0,0-0.2,0.1-0.4,0.3l-0.3,0.3l0,0.8L84.5,27.3L84.5,27.3z M48.7,20.9l0.1,0
	l0.7,0.8l0.7,0.8l1,0h2.2v-1.7v-1.6l-0.8-0.8l-0.8-0.8l0-0.2l0.1,0l0.8,0.8l0.8,0.8l0.7-0.8c0.4-0.4,0.7-0.8,0.8-0.8
	c0,0,0.2,0.1,0.2,0.1l-0.8,0.8l-0.8,0.8v1.6v1.6l1.1,1.2c0.6,0.6,1.2,1.3,1.2,1.3c0.6-0.7,0.8-0.7,1.4-1.5l0.9-0.9V22v-0.5l-0.2-0.2
	L57.9,21l0-0.2l0.3,0.1l0.1,0.1l0-1c0-0.6,0-1,0-1.1c-0.3-0.3-0.5-0.5-0.8-0.8l-0.7-0.7l0.2-0.1l0.6,0.7c0.3,0.4,0.8,0.8,0.8,0.8
	c0,0,0.3-0.2,0.6-0.6l0.9-0.9l0.1,0.2l-0.7,0.8l-0.7,0.8v1.2v1.2l0.5,0.5l0.5,0.5h1.1h1.1l0.5-0.5l0.5-0.5v-1.1v-1.1L62,18.4
	l-0.8-0.8l0.2-0.2l0.7,0.8l0.8,0.8c0.4-0.4,0.1-0.2,0.2-0.2c0,0,1.1-1.1,1.2-1.3c0.2-0.2,0.2,0.1,0.2,0.1l-0.7,0.7
	c-0.3,0.4-0.8,0.8-0.9,0.9c-0.1,0.3,0,0.3,0,1v1l0.1-0.1l0.3-0.2l0,0.2L63,21.5v0.9c0.3,0.3,0.5,0.5,0.8,0.8c0,0-0.5-0.4,0.1,0.1
	c0.6,0.6,1.1,1.1,1.4,1.4c0,0,0.8-0.7,1-0.9l0.4-0.4l-0.7-0.9l0.1,0l0.7,0.8l0.3-0.4l0.4-0.4v-0.7l0-0.3l0-1.4c0-0.3,0-0.8,0-1.1
	c-0.1,0-0.4-0.4-0.8-0.8l-0.7-0.7l0.2-0.1l0.7,0.8l0.7,0.8l0.7-0.7l0.7-0.7l0.3,0.1l-0.7,0.8l-0.7,0.8v1v1l0.6,0.6
	c0.3,0.4,0.6,0.6,0.7,0.6l1.8,0l0.2-0.2l0.6-0.5l0.6-0.5v-1v-1l-0.8-0.8l-0.8-0.8l0.3-0.1l0.4,0.4c0.2,0.2,0.5,0.6,0.7,0.8l0.3,0.4
	l0.7-0.7c0.4-0.4,0.7-0.8,0.7-0.8c0,0,0.2,0.1,0.2,0.1l-0.3,0.3c-0.2,0.2-0.3,0.4-0.3,0.4c0,0-0.2,0.2-0.4,0.5l-0.4,0.4l0,0.8
	c-0.1,0.8,0,1.5,0,2.4c0,0,0.2,0.1,0.4,0.4l0.4,0.4l0.8-0.9l0.1,0l0,0.2l-0.8,0.9l0.4,0.4c0.5,0.5,0.7,0.8,1,1
	c0.1,0,0.7-0.6,1.1-1.1v0l0.8-0.9l0.3-0.3V22v-0.6L77,21.2L76.8,21l0.2,0c0.1,0.1,0.1,0.1,0.1-0.9c0-0.5,0-1,0-1l-0.8-0.8l-0.7-0.7
	l0.2-0.1l0.7,0.7l0.8,0.8c1-1,1.1-1.2,1.4-1.5h0.2l0.1,0.2l-0.7,0.8l-0.7,0.8v1.1v1.1L78,22l0.5,0.5h1h1l0.5-0.6l0.5-0.6v-2.2
	l-0.8-0.8l-0.8-0.8l0.1-0.2l0.7,0.7l0.9,0.9l0.8-0.8c0.4-0.4,0.7-0.7,0.7-0.7c0,0,0.2,0.1,0.2,0.1l-0.7,0.7
	c-0.4,0.4-0.9,0.9-0.9,0.9l0,1.9L82,21l0.2-0.1l0,0.2l-0.2,0.2c-0.2,0.2-0.2,0.2-0.2,0.6c0,0.4,0,0.5,0,0.7c0,0.1,0.3,0.2,0.3,0.2
	l0.8,0.7c0.4,0.4,0.8,0.8,0.8,0.8l0.6,0.6c0.3-0.4,0.6-0.6,0.7-0.7c0.1-0.1,0.1-0.1-0.6-0.8l-0.7-0.7l0-0.1l0.1,0l0.7,0.7l0.7,0.7
	l0.6-0.7l0.6-0.7l-0.7-0.8L85.1,21l0-0.2l0.1,0l0.6,0.7l0.6,0.6l0-3.1l-0.3-0.3L85.4,18L85,17.6l0.2-0.1l0.4,0.4l1.1,1.1l0.5-0.6
	l0.7-0.8l0.2-0.2l0.1,0.1l-0.7,0.7l-0.7,0.8l0.1,3.3c1.4,0,0.1,0,2.5,0l0.8,0l0-3.4l-0.7-0.8c-0.7-0.8-0.6-0.6-0.8-0.8
	c0.2-0.1,0.1-0.1,0.1-0.1l1.5,1.5l1.5-1.5l0.2,0.1L91.5,18l-1.1,1.1v3.1l0.6-0.7l0.6-0.7l0.1,0l0,0.1l-0.7,0.8l-0.7,0.8l0.6,0.7
	l0.6,0.7l0.2-0.2c0.1-0.1,0.4-0.4,0.7-0.7l0.5-0.5l0.1,0l0,0.2l-0.7,0.7c-0.7,0.7-0.7,0.7-0.6,0.8c0.3,0.3,0.4,0.5,0.7,0.7
	c0,0,0.9-1,1.4-1.4l0.8-0.8l0.3-0.2c0-0.2,0-0.4,0-0.6c0-0.4,0-0.4-0.2-0.6L94.7,21l0-0.2l0.2,0.1C95,21.1,95,21,95,20.2
	c0-0.5,0-0.9,0-1c-0.3-0.3-0.6-0.6-0.9-0.9l-0.7-0.7l0.1-0.2l1.6,1.6l0.5-0.5l1-1.1l0.1,0.1l-0.8,0.8l-0.8,0.8v1.1v1.1l0.5,0.6
	l0.5,0.6h2.1L99,22l0.5-0.5v-1.1v-1.1l-0.7-0.8L98,17.6l0.1-0.2l0.8,0.8l0.7,0.8l0.8-0.9l0.7-0.7l0.2,0.1l-0.7,0.7
	c-0.3,0.3-0.6,0.6-0.8,0.8c0,0,0,0.5,0,1c0,1,0,1,0.1,0.9c0.1-0.1,0.2-0.1,0.2-0.1l0,0.1l-0.2,0.2l-0.2,0.2V22v0.6l0.3,0.3l0.8,0.9
	c0.5,0.5,1,1.1,1.1,1.1l1-1l0.4-0.4L103,23l-0.4-0.4l0-0.2l0.1,0l0.8,0.9l0.4-0.4c0.2-0.2,0.4-0.4,0.4-0.4c0-0.2,0-0.4,0-0.7l0-2.6
	l-0.4-0.5l-1-1.1l0.2-0.1l1.4,1.5l1.5-1.5l0.2,0.1l-1.5,1.6v2l0.5,0.5l0.7,0.7c0.8,0.1,1.2,0.1,1.9,0.1c0,0,0.3-0.3,0.7-0.6l0.6-0.6
	v-1v-1l-0.7-0.8l-0.7-0.8l0.1-0.2l0.1,0.1l0.7,0.7l0.7,0.7l0.7-0.8l0.7-0.7l0.2,0.1l-0.7,0.7c-0.4,0.4-0.7,0.8-0.7,0.8l-0.1,0.7
	l0,0.9l0,1.2v0.7c0.2,0.3,0.5,0.5,0.7,0.7c0,0,0.2-0.2,0.4-0.4l0.4-0.4l0.1,0l0,0.2l-0.4,0.4l-0.4,0.4c0.3,0.3,0.6,0.6,0.9,0.9
	c0.2,0.2,0.4,0.4,0.5,0.5c0.2-0.2,0.6-0.6,1.1-1c0.3-0.4,0.6-0.7,1-1l0.4-0.4v-0.5v-0.5l-0.4-0.4l0.1-0.1l0.2,0.2c0-0.6,0-0.9,0-0.9
	c0-0.6,0-1,0-1c0,0-0.1-0.1-0.1,0c0,0-0.3,0-0.1,0c0.1,0,0-0.2-0.6-0.8l-0.7-0.7l0.1-0.2l0.1,0.1c0.5,0.6,1,1,1.4,1.5l1.5-1.5
	l0.2,0.1l-0.8,0.8l-0.8,0.8v1.1v1.1l0.5,0.5l0.5,0.5h2.2l1-1v-1.2v-1.2l-0.7-0.8l-0.7-0.8l0.1-0.2l0.4,0.4l1.1,1.1
	c0.3-0.2,0.6-0.5,0.9-0.8l0.6-0.7l0.2,0.1l-1.5,1.5c0,0.4,0,0.6,0,1v1l0.1-0.1l0.1,0.2l-0.2,0.2V22v0.5l0.8,0.9c0.6,0.7,1,1,1.5,1.5
	c0,0,0.6-0.6,1.2-1.3l1.1-1.2v-1.6v-1.6l-0.8-0.8l-0.8-0.8l0.2-0.1c0,0,0.4,0.4,0.8,0.8l0.7,0.8l0.8-0.8l0.8-0.8l0.1,0l0,0.2
	l-0.8,0.8l-0.8,0.8v1.6v1.7h3.1l0.1,0l0.7-0.8l0.7-0.8l0.1,0l0,0.2l-0.8,0.8c-0.4,0.4-0.8,0.8-0.8,0.8c0,0,0.3,0.4,0.7,0.8l0.7,0.7
	l0.3-0.3c0.2-0.2,0.5-0.5,0.8-0.8l0.5-0.5l0.1,0l0,0.1l-0.7,0.8l-0.7,0.8l-0.1,0.2v0.9l0,2.4c0.3,0,0.5,0,1,0c0.1,0,0.3,0,0.3,0
	c0,0,1.8,0,1.8,0c0,0,0.4-0.4,0.8-0.8l0.8-0.8l0.1,0l0,0.2l-0.8,0.8l-0.8,0.8l0.6,0.7l0.6,0.7l0.8-0.8l0.8-0.8l0.1,0l0,0.2l-0.7,0.8
	c-0.6,0.7-0.9,0.9-0.8,0.9l0,0.9v0.8l0,1.5l3.1,0l0.1-0.1l0.7-0.8l0.7-0.8l0.1,0l0,0.1l-0.8,0.8c-0.4,0.4-0.8,0.8-0.8,0.8
	c0,0,0.3,0.4,0.8,0.8l0.8,0.8l0.3-0.3c0.1-0.1,0.5-0.5,0.7-0.8l0.5-0.5l0.1,0l0,0.2l-0.6,0.7l-0.6,0.7l-0.2,0.2l0,2.6V38h0.4
	c0.4,0,0.4,0,0.5-0.1c0.1-0.1,0.3-0.2,0.3-0.2s0.1,0,0.1,0.1c-0.1,0.1-0.2,0.1-0.2,0.2c0,0,0.3,0,0.8,0c0.6,0,0.9,0,0.8,0
	c0,0-0.1-0.2-0.1-0.2l0.2,0l0.1,0.1l0.1,0.1l0.8-0.8l0.8-0.8l0.1,0l0,0.2l-0.8,0.8l-0.8,0.8l0.6,0.6l0.6,0.6l0.8-0.8l0.8-0.8l0.1,0
	l0,0.2l-0.8,0.8c-0.6,0.6-0.7,0.7-0.8,0.9c0,0.2,0,0.3,0,0.3l0,1.8l0.2-0.1l0.1,0.1l-0.2,0.2c-0.1,0.1-0.1,0.2-0.1,0.5v0.4h0.5h1.5
	h0.8h0.2c0,0,0.4-0.4,0.8-0.8l0.8-0.8l0.1,0l0,0.2l-0.8,0.8c-0.4,0.4-0.7,0.8-0.7,0.8c0,0,1.3,1.4,1.3,1.4c0,0,0.3-0.3,0.7-0.7
	l0.7-0.7l0.1,0l0,0.2l-0.7,0.8l-0.7,0.8l0,0.5l0,2.9c0.7,0,2.8-0.1,3.1-0.1c0,0,0.3-0.3,0.7-0.7l0.7-0.8l0.1,0l0,0.2l-0.7,0.8
	l-0.7,0.8l0.7,0.7l0.7,0.7l1.5-1.6l0.1,0l0,0.2l-0.4,0.4c-0.3,0.5-0.7,0.9-1.1,1.3c0,0,0,2.2,0,3.2l3.1,0l0.8-0.8l0.8-0.8l0.1,0
	l0,0.2l-0.8,0.8c-0.4,0.4-0.8,0.8-0.8,0.8c0,0,1.4,1.5,1.4,1.5c0,0,0.3-0.3,0.7-0.8l0.7-0.8l0.1,0l0,0.2l-0.7,0.8l-0.8,0.9l0,3.3
	h1.6h1.6l0.8-0.8l0.7-0.8l0.1,0l0,0.2l-0.8,0.8l-0.8,0.8l0.7,0.8l0.7,0.8l-0.1,0.2l-0.7-0.8l-0.7-0.8h-1.6h-1.6l-1.1,1.1l-1.1,1.3
	c0.7,0.8,1.5,1.6,2.2,2.4l3.1,0.1l1.6-1.7l0.1,0.2l-0.1,0.1c-0.2,0.2-1.3,1.5-1.3,1.5l1.5,1.6l-0.2,0.2l-0.8-0.8l-0.8-0.8l-3.1,0
	l0,3.4l1,1h1.1h1.1l0.7-0.8l0.7-0.8l0.2,0.1c-0.4,0.5-1.1,1.2-1.5,1.6c0,0,0.4,0.5,0.7,0.9l0.6,0.7l-0.1,0.2l-0.6-0.7
	c-0.4-0.4-0.6-0.7-0.8-0.9c-0.2,0-0.6,0-0.9,0h-1l0.3,0.4l-0.1,0l-0.4-0.4h-1l-1.1,1.2l-1.2,1.3c0.3,0.3,0.7,0.7,1,1l0.3,0.4l0.9-1
	l0.1,0l0,0.2l-0.9,1l0.4,0.5l0.4,0.5l0.5,0l0.5,0l0.3-0.3l0.2,0l-0.1,0.2c-0.1,0.1,0,0.1,0.8,0.1c0.6,0,0.9,0,0.9-0.1l1.5-1.6
	l0.1,0.2c-0.2,0.2-1.4,1.5-1.4,1.5l1.5,1.7l-0.1,1.6v0.1c-0.5,0.5-0.9,1-1.4,1.5c0,0,0.4,0.5,0.7,0.9l0.7,0.7l-0.1,0.2l-0.7-0.7
	c-0.2-0.3-0.6-0.6-0.8-0.8c0,0-0.2-0.1-0.9-0.1c-0.8,0-0.9,0-0.9,0.1c0.1,0.1,0.1,0.2,0.1,0.2l-0.2,0.1l-0.2-0.2l-0.1-0.2
	c-0.4,0-0.9,0-1.3,0.1l-0.7,0.8l0.9,0.9l-0.2,0.1l-0.9-0.9l-0.3,0.4l-1.1,1.1c0.5,0.5,0.8,0.8,1.2,1.3c0.4,0.3,0.7,0.8,1,1.2
	c0,0.1,0.1,0.1,0.6,0.1h0.6l0.2-0.2l0.2-0.2l0.1,0l0,0.2l-0.1,0.2l-0.1,0.2h0.9c0.7,0,0.9,0,1-0.1c0-0.1,0.8-0.9,0.8-0.9l0.7-0.7
	l0.1,0.2c0,0-0.3,0.3-0.7,0.7l-0.8,0.9c0.1,0.2,1.3,1.4,1.5,1.6c0.2,0.2-0.1,0.2-0.1,0.2l-0.8-0.8l-0.8-0.8h-1.1h-1.1l-1,1l0,3.3
	l3.2,0l0.7-0.8l0.7-0.8l0.2,0.1l-1.5,1.6L161,89l0.6,0.7l-0.1,0.2l-0.6-0.7l-0.8-0.9l-2.8,0c-0.5,0-0.6,0-0.6,0.1l-2.2,2.4l2.2,2.4
	l3.2,0l0.8-0.8l0.8-0.8l0.1,0.2c0,0-0.4,0.4-0.8,0.8l-0.7,0.8l0.7,0.8l0.8,0.9l-0.1,0.1l-0.8-0.8l-0.8-0.8h-3.1v0.7v1.8v0.9l0.1,0.2
	l0.7,0.7l0.7,0.7l-0.1,0.2l-0.7-0.8l-0.7-0.8l-1.4,1.5l1.5,1.7l-0.2,0.1l-1.5-1.6l-3.1,0.1l0,1.6c0,0.6,0,1.6,0,1.6
	c0.5,0.5,0.3,0.3,0.8,0.9l0.8,0.8l-0.1,0.1l-0.8-0.8l-0.8-0.8l-0.7,0.7l-0.7,0.7l0.8,0.8l0.7,0.8l-0.1,0.2c-0.9-1-1.1-1.1-1.5-1.7
	c-0.6,0-2.4,0-3,0l0,3.4l0.7,0.8l0.7,0.8l-0.1,0.2l-0.8-0.8l-0.8-0.8l-0.7,0.7l-0.7,0.7l0.8,0.8l0.8,0.8l0,0.1l-0.1,0l-0.8-0.8
	c-0.4-0.4-0.8-0.8-0.8-0.8h-0.2c-0.8,0-1.6,0-2.4,0h-0.5v1.7v1.7l1.5,1.6l-0.1,0.1l-0.8-0.8l-0.8-0.8l-0.7,0.8L141,114l-0.2-0.1
	l0.8-0.8v0l0.8-0.8v-1.7c0-0.9,0-1.7,0-1.7c0,0-0.5-0.5-1.1-1.1c-0.6-0.6-1-1-1.2-1.3l-2.3,2.3v1.2l0,2.2c0.6,0.8,0.3,0.3,0.8,1
	l0.7,0.7l0,0.2l-1.6-1.7l-1.6,1.7l-0.1-0.2l0.8-0.8l0.8-0.8l0-3.3l-4.2,0v2.2v1.1l0.7,0.8l0.7,0.8l-0.1,0.2l-1.5-1.5l-0.8,0.8
	l-0.7,0.7l-0.2-0.1l0.7-0.7c0.6-0.6,0.9-0.8,0.8-0.9c0-1.2,0-2.2,0-3.4l-2.3-2.4l-1.2,1.2l-1.1,1.1v1.7v1.7l0.8,0.8l0.8,0.8
	l-0.2,0.1c0,0-0.4-0.4-0.8-0.8l-0.7-0.8l-1.3,1.6l-0.1-0.2l1.3-1.6v-1.7V109h-0.7h-1.6H125l-0.1,0.1l-0.7,0.8l-0.7,0.8l-0.1,0l0-0.2
	l0.8-0.8l0.8-0.8l-0.7-0.8l-0.7-0.8l-0.8,0.8l-0.8,0.8l-0.1,0l0-0.2l0.7-0.8l0.7-0.8l0-0.2v-3.2H120l-0.8,0.8l-0.8,0.8l-0.1-0.1
	l0.8-0.8l0.8-0.8l-0.7-0.8l-0.7-0.8l0.1-0.2l0.7,0.8l0.7,0.8h3.2l2.3-2.5l-1.2-1.2l-1.2-1.2h-1.5h-1.6l-0.8,0.8l-0.8,0.8l-0.1-0.1
	l1.5-1.6l-0.8-0.8l-0.7-0.8l0.1-0.2l0.8,0.8l0.7,0.8l1.6,0l1.6,0v-1.7V95l-0.8-0.8l-0.8-0.8l0.1-0.2l0.8,0.8
	c0.4,0.4,0.8,0.8,0.8,0.8c0,0,0.4-0.4,0.8-0.8l0.7-0.8l0.1,0.1l-0.8,0.9l-0.8,0.8v1.8v1.7l1.1,1.2l1.1,1.2h4.7l2.2-2.4l2.2-2.4v-5
	v-5l-4.5-4.8l-4.5-4.8h-8.7h-8.7l-8.7,9.3l-8.7,9.3v20.4v20.4h-2.4h-2.4v-20.4V95.1l-8.7-9.3l-8.7-9.3h-8.7h-8.7l-4.5,4.8l-4.5,4.8
	v5v5l2.2,2.4l2.2,2.4h4.7l2.2-2.4v-1.7V95l-0.8-0.8L52,93.4l0.1-0.2l0.7,0.8c0.4,0.4,0.7,0.8,0.8,0.8c0,0,0.4-0.3,0.8-0.8l0.9-0.8
	l0,0.2l-0.8,0.8L53.8,95v1.7v1.7h3.1l0.8-0.8l0.8-0.8l0.1,0l0,0.2l-0.8,0.8L57,98.5l0.7,0.8c0.4,0.4,0.7,0.8,0.8,0.8
	c0,0-0.1,0.2-0.1,0.2l-0.8-0.8l-0.8-0.8h-3.1l-2.3,2.5l2.3,2.5h1.6H57l0.7-0.8l0.7-0.8l0.1,0.2l-0.7,0.8l-0.7,0.8l0.8,0.8l0.8,0.8
	l0,0.1l-0.1,0l-0.7-0.8l-0.8-0.8h-1.6h-1.6l0,3.3l0.7,0.8l0.7,0.8l0,0.1l-0.1,0l-0.8-0.8l-0.8-0.8l-0.7,0.8l-0.7,0.8l0.8,0.8
	l0.8,0.8l0,0.2l-0.1,0l-0.7-0.8l-0.7-0.8l-3.2-0.1v1.6v1.7l0.7,0.8l0.8,0.8l0,0.2l-0.1,0l-0.8-0.8l-0.8-0.8l-0.7,0.8
	c-0.4,0.4-0.7,0.8-0.8,0.8c0,0-0.2-0.1-0.2-0.1l0.8-0.8l0.8-0.8v-1.7v-1.7c-0.7-0.8-1.5-1.6-2.2-2.4c-0.1,0-0.9,0.9-1.5,1.6
	c-0.4,0.5-0.8,0.9-0.8,0.9l0,1.1l0.2,0.2l0.2,0.2l-0.3,0c-0.2,0.4-0.1,1.4-0.1,1.9c0,0,0.8,0.8,0.8,0.8l0.7,0.7l-0.2,0.1l-0.7-0.7
	l-0.8-0.8l-1.6,1.5l-0.1-0.2l0.7-0.8v0l0.7-0.8v-2.3l-0.5-0.5l-0.5-0.5h-1h-1l-1.1,1.1v2.2l0.7,0.8l0.8,0.8l-0.1,0.2l-1.5-1.6
	l-0.8,0.8c-0.4,0.4-0.7,0.7-0.7,0.7c0,0-0.2-0.1-0.2-0.1l0.7-0.7v0c0.4-0.4,0.7-0.7,0.7-0.8c0,0,0-0.1,0.1-0.1l0.1-1.9l-0.3,0.2
	l0-0.2l0.4-0.4v-0.6v-0.6c-0.7-0.8-1.5-1.5-2.2-2.3c0,0-0.7,0.6-1.3,1.3c-0.6,0.6-1.1,1.1-1.1,1.1c0,0,0,0.8,0,1.7v1.7l0.8,0.8
	l0.8,0.8L36,114l-0.7-0.8l-0.7-0.8l-0.8,0.8l-0.8,0.8l-0.1,0l0-0.2l0.8-0.8l0.8-0.8v-1.7V109c-1.2,0-1.9,0-3.1,0
	c0,0-0.4,0.4-0.8,0.8l-0.8,0.8l-0.1,0l0-0.2l0.8-0.8l0.8-0.8l-0.7-0.7l-0.7-0.7l-0.8,0.8l-0.8,0.8l-0.1,0l0-0.1l0.7-0.8l0.7-0.8
	l0-3.3l-2.9-0.1l-1.7,1.6l-0.1,0l0-0.2l1.5-1.6l-1.4-1.5l-1.5,1.6l-0.1,0l0-0.2c0.6-0.5,1-1.2,1.5-1.8c0-1.1,0-1.9,0-1.9l0-1.3
	l-3.1,0l-1.5,1.6l-0.1,0l0-0.2l1.5-1.6L20.2,97l-1.5,1.6l-0.1,0l0-0.2l1.5-1.6v-3.4H17l-1.5,1.6l-0.1,0l0-0.2l1.5-1.6
	c-0.5-0.5-1-1.1-1.5-1.6c0,0,0.1-0.2,0.1-0.2l1.5,1.7h3.2l2.3-2.4c-0.8-0.8-1.5-1.5-2.4-2.6l-1,0l-0.5,0.5l-0.1,0l0-0.2l0.3-0.3
	l-1.9,0l-1.5,1.6l-0.1-0.2l1.4-1.6c-0.6-0.7-1-1-1.4-1.4c0.1-0.1,0,0,0.1-0.2l1.4,1.4h2.2l0.5-0.5l0.5-0.5v-1.2v-1.2l-0.5-0.5
	l-0.5-0.5h-1.1H17l-0.8,0.8l-0.8,0.8L15.3,85c0.6-0.6,1.1-1.1,1.5-1.6l-0.1-0.2L16,82.6c-0.3-0.4-0.6-0.7-0.7-0.7
	c0,0,0.1-0.2,0.1-0.2l0.6,0.7l1,0.9c0.3,0-0.1,0,0.8,0h0.9l-0.1-0.2L18.6,83l0-0.2l0.1,0l0.2,0.2l0.2,0.2h0.6c0.5,0,0.6,0,0.6-0.1
	c0,0,0.1-0.2,0.2-0.3c0.2-0.3,0.5-0.6,0.8-0.8c0.4-0.5,1-1,1.1-1.2c-0.3-0.4-0.5-0.6-1-1.1l-0.3-0.4l-0.4,0.5l-0.4,0.5l-0.1,0l0-0.1
	l0.4-0.5l0.4-0.5c-0.3-0.2-0.5-0.5-0.7-0.8L19,78.4l-0.3,0.3l-0.1-0.1l0.2-0.2c-0.6,0-1.1,0-1.7,0c-0.1,0.1-0.7,0.7-0.9,0.9L15.5,80
	l-0.1-0.2l0.7-0.7c0.4-0.4,0.8-0.8,0.8-0.8l-1.5-1.7c-0.2-1.6,0.5-2.1,1.5-3.2l-1.5-1.6l0.1-0.2l0.7,0.7c0.6,0.7,0.8,0.8,0.8,0.7
	c0-0.1,0.1,0.2,0.1,0.2c0,0,0.4,0,0.9,0c0.8,0,0.9,0,0.8-0.1L18.6,73l0.1,0l0.3,0.3l0.5,0l0.6,0l0.4-0.4l0.4-0.5l-0.5-0.5L20,71.4
	l0-0.2l0.1,0l0.5,0.5l0.5,0.5c0.5-0.5,0.9-1,1.4-1.4c-0.1-0.1-0.7-0.7-1.2-1.3l-1.1-1.2h-1l-0.4,0.4l-0.1-0.1l0.1-0.2l0.1-0.1h-1
	c-0.4,0-0.5,0-0.9,0c-0.3,0.3-0.6,0.6-0.9,0.9L15.5,70l-0.1-0.2l0.6-0.7c0.4-0.4,0.8-0.9,0.8-0.9l-1.5-1.6l0.1-0.1l0.7,0.8l0.7,0.8
	H18h1.1l0.5-0.5l0.5-0.5v-1.1v-1.1l-0.5-0.5l-0.5-0.6H17l-0.8,0.8l-0.8,0.8l-0.1-0.2c0.4-0.4,0.6-0.6,1-1c0.2-0.2,0.6-0.6,0.6-0.6
	c0,0-1.2-1.3-1.4-1.5l-0.1-0.1l0.1-0.2l0.7,0.7l0.9,0.9l1.8,0l-0.2-0.3l0-0.1l0.1,0l0.4,0.4h0.5c0.4,0,0.5,0,0.5-0.1h0
	c0,0,0.4-0.5,0.8-0.9c0.6-0.7,0.7-0.8,0.8-0.9l0.6-0.6l-1.1-1.2l-1.1-1.1h-1.6h-1.6l-0.7,0.8l-0.7,0.8l-0.1-0.2l0.7-0.8l0.7-0.8
	l-0.8-0.8l-0.8-0.8l0-0.2l0.1,0l0.7,0.8l0.8,0.8h1.6h1.6L20,54.7l-1.4-1.5l0-0.2l0.1,0c0.5,0.5,1,1,1.5,1.5c0,0,0.3-0.3,0.7-0.7
	c0.4-0.4,0.7-0.7,0.7-0.7c0,0-0.3-0.4-0.7-0.9l-0.8-0.8l0-0.2l0.1,0l0.8,0.8l0.8,0.8h0.2h3v-1.4c0-0.5,0-1.1,0-1.6
	c0-0.2-0.1-0.2-0.1-0.2c-0.4-0.4-0.7-0.8-1-1.2L23.4,48l0.1-0.1c0.5,0.5,1,1.1,1.5,1.6l1.4-1.4l-0.7-0.8L25,46.5l0-0.2l0.1,0
	l0.7,0.8c0.4,0.4,0.8,0.8,0.8,0.8c0.2,0,1.9,0,1.9,0l1.3,0l0-3.3l-0.8-0.9l-0.7-0.8l0-0.2l0.1,0l0.7,0.7c0.4,0.4,0.7,0.7,0.7,0.7
	c0,0,0.3-0.3,0.7-0.7c0.3-0.4,0.6-0.7,0.7-0.7c0,0-0.3-0.4-0.7-0.9l-0.8-0.8l0-0.1l0.1,0l0.8,0.8c0.4,0.4,0.8,0.8,0.8,0.8h0.2l2.7,0
	c0.1-0.1,0.3,0,0.2,0c0,0,0-0.3,0-0.7c0-0.8,0-1.7,0-2.5c0-0.1-0.2-0.3-0.8-0.9l-0.8-0.8l0-0.1l0.1,0l0.7,0.8l0.8,0.8l0.6-0.6
	l0.6-0.6L35,37.3l-0.8-0.8l0-0.1l0.1,0l0.8,0.8l0.8,0.8l0.1-0.1l0.2-0.2c0,0,0.1,0.1,0.1,0.1c0,0-0.1,0.1-0.1,0.2
	c0.5,0.1,1.1,0,1.7,0c0,0-0.1-0.1-0.1-0.2c0-0.1,0.1-0.1,0.1-0.1c0.1,0,0.1,0.1,0.1,0.1l0.2,0.2l0.8,0l0-3.4l-0.2-0.2l-0.6-0.7
	l-0.6-0.7l0-0.2l0.1,0l0.7,0.8c0.4,0.4,0.7,0.8,0.7,0.8c0,0,0.3-0.4,0.8-0.8c0.4-0.4,0.7-0.8,0.7-0.8c0,0-0.3-0.4-0.8-0.8l-0.8-0.8
	l0-0.2l0.1,0l0.7,0.7l0.7,0.8l0.2,0.1l3.1,0l0-1.3c0-0.9,0-0.8,0-1.9c0.1,0-0.1-0.2-0.7-0.9l-0.7-0.8l0-0.2l1.6,1.6
	c0.4-0.4,0.9-0.8,1.2-1.3l-1.4-1.6l0.1-0.1l0.8,0.8c0.4,0.4,0.8,0.8,0.8,0.8l0.8,0l2.3,0l0-3.2l-0.1-0.2l-0.7-0.8l-0.7-0.8l0-0.2
	l0.1,0l0.8,0.8c0.4,0.4,0.8,0.8,0.8,0.8c0,0,0.3-0.3,0.7-0.7c0.4-0.4,0.7-0.7,0.7-0.8c0,0-0.3-0.4-0.7-0.9L48.7,21V20.9L48.7,20.9z
	 M25.1,55.1l-0.1,0l0-0.2l0.8-0.9L25,53.3h-3.2l-0.7,0.8l-0.7,0.8v3.5l1.1,1.2l1.1,1.2h2.3h2.3v-1v-1v-0.1V57v-1.4l-0.7-0.7
	l-0.7-0.7L25.1,55.1L25.1,55.1z M21.3,69.2l1,1l0.4,0.4h1.1h1.1v-0.5v-0.5L24.3,69l-0.8-0.8l-0.2-0.2v-0.1l0.1,0l0.2,0.2l0.8,0.8
	c0.3,0.3,0.5,0.5,0.5,0.5c0,0,0.3-0.3,0.7-0.7c0.4-0.4,0.7-0.7,0.8-0.8l0.1-0.1l0.1,0.2l-0.8,0.8L25,69.6c0,0.3,0,0.7,0,1
	c0,0,0.5,0,1.1,0h1.1l0.9-0.9l0.9-0.9l-0.4-0.4l-0.4-0.4l0.2-0.1l0.4,0.4l0.4,0.4l1.1-1.2c1.1-1.3,1.2-1.4,1.4-1.7
	c0,0-1-1.1-2.2-2.4l-2.2-2.3h-2.3h-2.3l-0.3,0.4l-1.2,1.3l-0.7,0.7v1.1l1.4-1.5l0.1,0l0,0.2l-1.5,1.6v1.1V67l0.5,0.5l1,1.1l0,0.2
	l-0.1,0l-1.4-1.4l0,0.9L21.3,69.2z M21.8,72.9l3,0V71h-1.1c-1.1,0-0.9,0.1-1.1,0l-1.1,1.1l-0.3,0.3L21.8,72.9z M31.5,83.8l-0.1,0
	l-1.5-1.6l-0.4,0.4l0.9,1l1.7,1.9h9.1l4.5-4.8l4.5-4.8L45.9,71l-4.4-4.7h-4.7h-4.7l-1.7,1.8l-0.9,1c0.1,0.1,0.2,0.2,0.3,0.3
	c0,0,0.4-0.4,0.8-0.8l0.8-0.8l0.1,0l0,0.2l-0.8,0.8L30,69.5v1.7v1.7h3.1l0.8-0.8l0.8-0.8l0.2,0.1L34,72.2L33.2,73l1.6,1.8l-0.2,0.1
	l-1.5-1.8H30l-2.3,2.5v0.5l2.2,2.3h3.3l0.8-0.8l0.8-0.9l0.1,0.2c-0.1,0-1.6,1.6-1.6,1.6l1.5,1.6l-0.2,0.1l-0.8-0.8l-0.8-0.8H30V82
	l1.5,1.6L31.5,83.8L31.5,83.8z M22.3,90.2l0.4,0.4H25h2.3l2.2-2.4l2.2-2.4c-0.7-0.8-1-1.1-1.5-1.7L29.1,83l-0.8,0.8l-0.1-0.2
	l0.4-0.4l0.4-0.4L27.3,81h-2.2v1l1.5,1.5l-0.2,0.1L25,82.2l-1.5,1.6l-0.1,0l0-0.2c0.3-0.4,0.7-0.7,1-1.1l0.5-0.5v-1h-1.1
	c-0.6,0-0.9,0-1.1,0c-0.2,0.3-0.3,0.3-0.5,0.5l-0.8,0.9l-0.7,0.8l-0.3,0.3v0.5v0.5l0.5-0.5l0.9-1l0.1,0l0,0.2
	c-0.3,0.4-0.7,0.7-1,1.1l-0.5,0.5v1.2v1.2l1.5,1.6l0,0.2l-0.1,0l-1.4-1.5l0,0.9l0.7,0.7L22.3,90.2z M24.8,96.8l0.1-0.1l0.8,0.9
	l0.8-0.8l0.8-0.8v-1.3v-1.3v-0.2v-1.1V91H25c-2.3,0-2.5,0-2.3,0.2l-2.2,2.2v3.4l1.5,1.6H25l0.3-0.4l0.3-0.3L24.8,96.8z M34.8,100.3
	l-0.1,0l-0.8-0.8l-0.8-0.8h-3l1,1.1l1,1.1h3.7h1l0.1-0.1l2.2-2.3l2.2-2.3v-4.9v-4.9c-3,0-6-0.1-9-0.1c-0.7,0.8-1.7,1.7-2.4,2.5
	l-2.2,2.3v0.2v1v2.5V96l0.9,1l0.9,1l0-1.5l0-1.5l-0.8-0.8c-0.7-0.8-0.6-0.7-0.8-0.8c-0.2-0.1,0-0.2,0-0.2l0.1,0L29,94l0.8,0.8
	l0.8-0.8l0.8-0.8l0.1,0l0,0.2l-0.8,0.8L29.9,95v1.7c0,0.9,0,1.7,0,1.7l3.2,0l0.8-0.8l0.8-0.8l0.1,0l0,0.2l-0.7,0.8
	c-0.4,0.4-0.7,0.8-0.8,0.8c0,0,0.3,0.4,0.7,0.9l0.8,0.8L34.8,100.3z M32.1,101.3l-0.7,0.7c-0.4,0.4-0.7,0.7-0.7,0.8l0.7,0.8l0,0.2
	l-0.1,0l-0.8-0.8l-0.7,0.7v0.7v2.8l0.7,0.8l0.7,0.8h3.2l1-1.1c0.4-0.4,0.9-0.9,1.2-1.3c0,0,0-1.2,0-2.5v-2.5h-1H32.1L32.1,101.3z
	 M45.8,106.6l0.4-0.4v-2.5v-2.5l-2.2-2.4l-2.2-2.4l-2.2,2.4l-2.2,2.4v2.5v2.5l2.3,2.4h0.4h0.4l-1.4-1.5l0-0.2l0.1,0l1.5,1.6h1h1.1
	l1.5-1.6l0.1,0l0,0.2c-0.5,0.5-0.9,1-1.3,1.4c0,0,0.2,0,0.4,0h0.5l0.7-0.7L45.8,106.6z M141.1,101.3h-1v2.5c0,1.3,0,2.5,0,2.5
	c0.4,0.4,0.8,0.9,1.2,1.3l1,1.1l0.6,0l1.7,0h0.9l0.7-0.8l0.7-0.7v-1v-1.8v-0.7l-0.3-0.4l-0.3-0.4l-0.4,0.4l-0.4,0.4l-0.1,0l0-0.1
	l0.4-0.4c0.2-0.2,0.4-0.4,0.4-0.4c0,0-0.3-0.4-0.7-0.8l-0.7-0.7h-1.3H141.1L141.1,101.3z M148.8,93.4c-0.2,0.2,0,0-0.8,0.8l-0.8,0.8
	v1.5V98l1-1l1-1v-4.9l0-0.2l-2.2-2.4c-1.7-1.8-2.2-2.3-2.3-2.3c0,0-0.1,0-0.1,0c0,0-1.3-0.1-4.5-0.1h-4.5v4.9v4.9l2.2,2.3l2.2,2.3
	l0,0.1h1h2.5h1.3l1-1.1l1-1.1h-3.1l-0.8,0.8l-0.8,0.8l-0.1,0l0-0.2l0.8-0.8c0.4-0.4,0.7-0.8,0.7-0.8c0,0-0.4-0.4-0.8-0.8l-0.7-0.8
	l0-0.2l0.1,0l0.8,0.8l0.8,0.8l3.2,0l0-1.7h0l0-1.7l-0.8-0.8l-0.8-0.8l0.1-0.1l0.8,0.8l0.8,0.8l1.5-1.6L148.8,93.4L148.8,93.4z
	 M155.5,79.4L155.5,79.4l0.2-0.2l-0.5-0.5l-0.1,0h-3v1.9h1.1c0.6,0,1.1,0,1.1,0c0,0,0.1-0.1,0.1-0.1c0,0,0-0.1,0.1-0.1
	c0,0,0.2-0.1,0.3-0.3C155,79.8,155.2,79.6,155.5,79.4z M154.7,81.5c-0.3-0.3-0.3-0.3-0.4-0.1c0,0,0,0,0-0.1c0-0.1,0-0.1,0-0.2
	c0.2-0.1-0.1-0.1-1.1-0.1h-1.1v1l0.5,0.5c0.4,0.4,0.9,0.9,0.9,0.9c0,0-0.2,0.1-0.2,0.1l-0.8-0.9l-0.5-0.6l-0.7,0.8l-0.7,0.8
	l-0.2-0.1l0.8-0.8l0.8-0.8V81h-2.2l-1.7,1.8l0.8,0.8l-0.2,0.2l-0.8-0.8l-2.7,2.9l4.5,4.8h2.3h2.3l2.3-2.5l0-3.4l-0.5-0.5l-0.8-0.9
	l-0.2-0.2l0.1-0.1l0.2,0.2l1.2,1.3l0-0.4l0-0.4c-0.4-0.4-0.6-0.7-1-1.1L154.7,81.5z M145.1,66.6l-0.3-0.3h-4.7h-4.7L131,71l-4.4,4.7
	l4.5,4.8l4.5,4.8h4.5h4.6l0.3-0.3h0l0.3-0.3l0.1-0.2l1.9-2l-0.2-0.2l-0.2-0.2l-0.8,0.8l-0.8,0.8l-0.1-0.2l0.8-0.8l0.8-0.8v-1.6v-1.7
	h-1.6h-1.6l-0.8,0.8l-0.8,0.8l-0.2-0.1l0.8-0.8c0.4-0.4,0.8-0.8,0.8-0.8c0-0.1-1.5-1.6-1.6-1.6c-0.1,0,0.2-0.1,0.2-0.1l1.5,1.6h1.6
	h1.6l1.1-1.2l1.1-1.2v-0.5l-1.2-1.2l-1.2-1.2h-3.1l-1.5,1.7l-0.2-0.1l1.6-1.7l-0.8-0.8l-0.8-0.8l0-0.2l0.1,0l0.8,0.8l0.7,0.8h3.1
	v-1.7v-1.7l-0.8-0.8l-0.7-0.8l0-0.2l0.1,0l0.7,0.8c0.4,0.4,0.8,0.8,0.8,0.8l0.3-0.3l-0.9-1L145.1,66.6L145.1,66.6z M155.7,69.2
	L155.7,69.2l0.9-1l0-0.4l0-0.4l-0.4,0.4l-0.9,1l-0.1,0l0-0.1l1-1.1l0.5-0.5l0-3.5l-1.9-2.1l-0.3-0.4H152h-2.3l-2.2,2.3
	c-1.2,1.3-2.3,2.5-2.3,2.5l2.6,2.8l0.8-0.8l0.2,0.1l-0.8,0.9l0.9,0.9l0.9,0.9l1.1,0l1.1,0l0-0.5h0l0-0.5l-0.8-0.8l-0.8-0.8l0.2-0.1
	c0,0,0.4,0.4,0.8,0.8l0.7,0.8l0.5-0.5l1-1.1l0.1,0l0,0.2l-1,1.1l-0.5,0.5v0.5v0.5h1.1h1.1l0.3-0.4C155,69.9,155.3,69.6,155.7,69.2
	L155.7,69.2z M155,72.8l0.3,0l0.4-0.4c-0.4-0.5-0.9-1-1.4-1.4l-2.2,0v0.9v0.9h2H155z M118.2,46.5l0.1-0.1c0.2,0.2,0.3,0.3,0.7,0.7
	l0.8,0.8l1.6,0l1.6,0v-0.6V46h-2.3h-2.3l-2,0l-4.1,4.4l-4.7,5v9.7v9.7h9.2h9.2l4.4-4.7c1.3-1.4,3.2-3.5,4.5-4.8c0,0,0-0.4,0-0.9
	v-3.6v-2.5h-0.1h-1.6v3.4l0.8,0.8c0.5,0.6,0.6,0.7,0.7,0.7c0.1,0-0.1,0.2-0.1,0.2l-0.8-0.8l-0.8-0.8l-0.7,0.8l-0.7,0.8l-0.2-0.1
	l0.8-0.8l0.8-0.8v-3.4l-2.3-2.5l-2.3,2.5v1.6v1.6l0.8,0.8l0.8,0.8l-0.2,0.1c0,0-0.4-0.4-0.8-0.8l-0.7-0.8l-0.8,0.8l-0.8,0.8l-0.1,0
	l0-0.2l0.8-0.8l0.8-0.8v-1.6v-1.6l-3.2,0l-0.8,0.9l-0.7,0.7l-0.1,0l0-0.2l0.7-0.8l0.7-0.8l-1.4-1.4l-0.8,0.8l-0.8,0.8l-0.1,0l0-0.2
	l0.8-0.8v0c0.4-0.4,0.8-0.8,0.8-0.9v-3.2h-1.6h-1.6l-0.8,0.8l-0.8,0.8l-0.1,0l0-0.2l0.8-0.8l0.8-0.8l-0.7-0.8l-0.7-0.8l0.1-0.2
	l0.7,0.8l0.7,0.8h1.7h1.7l1.2-1.2l1.2-1.2l-2.3-2.5h-1.6h-1.6l-0.8,0.8l-0.8,0.8l-0.1-0.2c0,0,0.4-0.4,0.8-0.8l0.7-0.8l-0.7-0.8
	L118.2,46.5L118.2,46.5z M139.4,58.3l0,0.1l-0.1,0l-0.8-0.8c-0.4-0.4-0.8-0.8-0.8-0.8c-0.1,0.1-1.3,1.4-1.3,1.5c0,0,0.3,0.4,0.7,0.8
	l0.7,0.8l0,0.2l-0.1,0l-0.7-0.8l-0.7-0.8l-0.1-0.1h-0.6v7h4.7c3.1,0,4.6,0,4.6,0c0,0,0-0.1,0-0.1c0,0-0.1,0-0.1-0.1
	c0-0.1,0-0.1,0.1,0c0.1,0.1,0.4-0.2,2.2-2.2l2.1-2.2l0.1-0.1l0.1-5.1l-1-1.1c-0.5-0.6-1-1.1-1-1.1l0,3.3l0.7,0.8l0.8,0.8l0,0.2
	l-0.1,0l-0.8-0.8c-0.4-0.4-0.8-0.8-0.8-0.8c0,0-1.1,1.2-1.5,1.6l-0.1-0.2l1.5-1.7v-3.6h-1.6h-1.6l-1.3,1.3c-0.2,0-0.1,0.2-0.3,0.1
	l-1.2-1.4h-1.5h-1.5v0.6v2.6l0,0.2l0.8,0.8L139.4,58.3L139.4,58.3z M141.1,50.5h2.7c0.9,0,1,0,1.1-0.1l0.8-0.8l0.6-0.7l-0.8-0.9
	l0-0.2l0.1,0l0.8,0.9l0.6-0.6v-0.6h0l0-2.8l-0.7-0.8l-0.7-0.8h-0.9h-1.7h-0.7l-0.6,0.6c-0.1,0.1,0,0.2,0.4,0.6
	c0.3,0.3,0.5,0.5,0.5,0.5c0,0,0.1,0.1,0.1,0.1l-0.1,0.2l-0.5-0.6l-0.5-0.6c-0.5,0.5-1,1-1.5,1.6c0,0.6,0,0.3,0,1.1v1.1h1.1l0.7-0.8
	l0.7-0.8l0.1,0.1l-1.5,1.7l1.4,1.5l-0.1,0.1l-1.2-1.2l-0.1-0.2l-1.1-0.1v2.4L141.1,50.5L141.1,50.5z M144.8,51L144.8,51l-1.1-0.1
	c-1.2,0-2.5,0-3.7,0.1l-1,1l-1,1h1.5h1.5l0.6-0.7c0.2-0.2,0.5-0.5,0.6-0.7c-0.1-0.1-0.1-0.1-0.2-0.2c0.2-0.1-0.1,0,0.1-0.2
	c0.2,0.2,0.2,0.3,0.3,0.3c0.4-0.4,0,0.1,0.3-0.2c0.2,0.1,0,0,0.1,0.1c-0.2,0.2,0,0-0.2,0.3c0.1,0.1,0.4,0.4,0.6,0.7l0.6,0.6h1.4h1.4
	l-0.9-1L144.8,51z M126.7,38.1l0.7-0.8l0.7-0.7v-1.7c0-1.3,0-1.7-0.1-1.8l-3.3-0.1l-0.7,0.8l-0.8,0.8l-0.1-0.1l0.8-0.8l0.7-0.8
	l-0.8-0.8l-0.8-0.8l0.2-0.1l0.7,0.8l0.8,0.8h3.1l-2-2.1h-2.5l-1.7,0l-0.4,0l-2.3,2.5l-2.2,2.3v5v5h0.8l5.5,0l0-0.6l-0.7-0.8
	l-0.7-0.8l0-0.1l0.1,0l0.8,0.8c0.4,0.4,0.8,0.8,0.8,0.8c0,0,0.3-0.3,0.7-0.7c0.4-0.4,0.7-0.8,0.7-0.8c0,0-0.3-0.4-0.7-0.8l-0.7-0.8
	l0-0.2l0.1,0l0.7,0.7l0.7,0.7l0.1,0.1h3.1v-1.7v-1.7l-0.6-0.6c-0.3-0.3-0.6-0.6-0.6-0.6 M99.9,41.6l-0.2-0.2l-0.4-0.4l-0.4-0.4h-1.3
	V44v0.9l1.2,1.3c0.7,0.7,1.2,1.3,1.3,1.3c0,0,0.3-0.3,0.6-0.6l0.6-0.6v-1.1v-1.1l-0.8-0.8l-0.8-0.8l0-0.2l0.1,0l0.7,0.7l0.7,0.7
	l0-0.4l0-0.4l-0.7-0.7L99.9,41.6z M93.2,56.2l0.7-0.7v-5l-2.2-2.3l-2.2-2.3h-1h-1l-2.2,2.3l-2.2,2.3v2.5v2.5l0.7,0.7l1.1,1.2
	l0.4,0.4h1.4h1.4l-0.7-0.7l-0.7-0.7l0-0.2l0.1,0l0.8,0.8c0.4,0.4,0.8,0.8,0.8,0.8c0,0,0.4-0.4,0.8-0.8l0.8-0.8l0.1,0l0,0.2l-0.7,0.7
	l-0.7,0.7h1.4h1.4l0.4-0.4L93.2,56.2L93.2,56.2z M75.5,59.7l0-0.2l0.7-0.8c0.4-0.4,0.7-0.8,0.7-0.8c0,0-1.3-1.4-1.4-1.5
	c0,0-0.4,0.3-0.8,0.8L74,58.1l-0.1,0l0-0.2l0.7-0.8h0l0.7-0.8l0-0.2v-2.6v-0.6h-1h-1l-1.2,1.2L71,55.4l0,9.9l0,8.6l8.7,9.3
	c4.8,5.1,8.7,9.3,8.8,9.3s4-4.2,8.8-9.3l8.7-9.3l0-8.6l0-9.9l-2.3-2.5h-1h-1v3.3l0,0.2l0.7,0.8l0.7,0.8l0,0.2l-0.1,0l-0.8-0.8
	c-0.4-0.4-0.8-0.8-0.8-0.8c-0.1,0.1-1.4,1.5-1.4,1.5c0,0,0.3,0.4,0.7,0.8l0.7,0.8l0,0.2l-0.1,0l-0.7-0.7l-0.7-0.7l-0.1-0.1h-3.1v3.4
	l0.7,0.8l0.8,0.8l0,0.2l-0.1,0l-0.8-0.8l-0.8-0.8l-0.7,0.8L95,63.2L94.9,63l0.8-0.8l0.8-0.8v-3.4l-2.3-2.5l-2.3,2.5l0,3.3l0.8,0.8
	l0.8,0.8l-0.2,0.1c0,0-0.4-0.4-0.8-0.8l-0.7-0.8l-0.8,0.8l-0.8,0.8l-0.1,0l0-0.2l1.2-1.3l0.3-0.4v-0.8v-1.7v-0.7h-1.3h-1.3l0.2,0.2
	c0.1,0.1,0.4,0.5,0.7,0.7l0.5,0.5l0,0.2l-0.1,0l-0.8-0.8c-0.4-0.4-0.8-0.8-0.8-0.8c0,0-0.4,0.4-0.8,0.8l-0.8,0.8l-0.1,0l0-0.2
	l0.5-0.5c0.3-0.3,0.6-0.6,0.7-0.7l0.2-0.2h-1.3h-1.3v0.7v1.7v0.8l0.3,0.4c0.2,0.2,1.2,1.3,1.2,1.3c0,0,0,0.1,0,0.1l-0.1,0l-0.8-0.8
	l-0.8-0.8l-0.7,0.8c-0.4,0.4-0.7,0.8-0.8,0.8c0,0-0.2-0.1-0.2-0.1l0.8-0.8h0l0.8-0.8v-0.8l0-1.8l0-0.7L84,56.9l-1.2-1.2l-1.2,1.2
	l-1.2,1.2v1.7l0,1.7l0.8,0.8L82,63l-0.2,0.1l-0.7-0.8l-0.7-0.8l-0.8,0.8l-0.8,0.8c-0.1,0-0.1-0.1-0.1-0.1l0.8-0.8l0.8-0.8v-1.7v-1.7
	h-0.6h-2.5L77,58.2L76.3,59l-0.7,0.7L75.5,59.7L75.5,59.7z M95.5,33.8l-0.6,0.6l-0.6,0.6v4.1v0.9h2.6c0-1.3,0-2.7,0-4l0-0.8L96.6,35
	L95.5,33.8L95.5,33.8z M92.2,33.3c-0.2-0.1-0.3-0.2-0.4-0.2h-0.1v0.6c0,0.6,0,1.1,0,1.8v1l0.7,0.8l0.8,0.8l0,0.2l-0.1,0l-0.8-0.8
	c-0.4-0.4-0.8-0.8-0.8-0.8c0,0-0.4,0.4-0.8,0.8L90,38.2L89.9,38l0.5-0.5c0.3-0.3,0.5-0.5,0.5-0.6c0,0,0.1-0.1,0.1-0.1l0.2-0.2
	l0.2-0.2v-1v-1.9c0-0.5,0-0.7-0.1-0.7c0,0-0.4-0.1-1.3,0l-1.2,0l0.7,0.7l0.7,0.7l0,0.2l-0.1,0l-0.8-0.8c-0.4-0.4-0.8-0.8-0.8-0.8
	c0,0-0.4,0.4-0.8,0.8l-0.8,0.8l-0.1,0l0-0.2l0.7-0.7l0.7-0.7l-1.2,0c-0.8,0-1.2,0-1.3,0c0,0-0.1,0.2-0.1,0.7v1.9v1l0.2,0.2
	c0.1,0.1,0.2,0.2,0.2,0.2c0,0,0.1,0.1,0.1,0.1c0,0,0.2,0.3,0.5,0.6l0.5,0.5l-0.1,0.2l-0.7-0.8c-0.4-0.4-0.7-0.8-0.8-0.8
	c0,0-0.4,0.3-0.8,0.8l-0.8,0.8l-0.1,0l0-0.2l0.8-0.8l0.8-0.8v-1c0-0.8,0-1,0-1.8l0-0.7c-0.2,0.1-0.3,0.2-0.5,0.3l-1,1.1l-0.7,0.7
	v1.5V38v0.2v0.9c0,0.9,0,1,0.1,1.1l2.3,2.4l2.1,2.2h0.9h0.9l2.1-2.2h0l2.1-2.2l0.2-0.2c0.1-0.1,0.1-0.1,0.1-1.1v-4.1l-0.7-0.7
	C92.8,34,92.5,33.6,92.2,33.3L92.2,33.3z M99.2,34.6l0-0.2l0.5-0.6l0.5-0.6l-0.2-0.2l-0.2-0.2l-0.8,0.8l-0.7,0.8l-0.2,0.2l-0.5,0.6
	v2.4v2.4h1.3l1-1c0.4-0.5,0.8-0.9,1.2-1.3l0.2-0.1v-2.4v-0.9l-0.4-0.4l-0.4-0.4L99.9,34l-0.5,0.6L99.2,34.6L99.2,34.6z M85.5,30.5
	v0.2v1c0,0.6,0,0.7,0.1,0.7c0,0,0.3-0.3,0.7-0.7c0.5-0.5,0.6-0.7,0.6-0.7c0,0,0-0.2,0-0.2s0,0,0.1,0.1c0.2,0.2,0.1,0.1,0.3-0.2
	l0.2-0.2h-0.2H85.5L85.5,30.5z M89.8,30.5h-0.2l0.2,0.2c0.1,0.1,0.2,0.2,0.2,0.2l0.1-0.1l0.1,0l0,0.2c0,0.1,0.1,0.2,0.6,0.7
	c0.3,0.4,0.7,0.7,0.7,0.7c0,0,0.1-0.2,0.1-0.7v-1.2H89.8z M62.9,26.2l0.1-0.1l1.4,1.5h0.8v-1.2v-1.2l0-0.1l-0.3-0.3l-1.9-2l-1,0
	l0.5,0.6c0.3,0.3,0.5,0.6,0.6,0.6l0.1,0.4c-0.1-0.1-0.4-0.3-0.9-0.9l-0.6-0.6h-1.1h-1.1l-0.8,0.8l-0.8,0.8l-0.1,0l0-0.2l0.7-0.7
	l0.7-0.7l-0.9,0l-0.7,0.7l-1.2,1.3l-0.3,0.4v2.5v2.5l2.2,2.4c1.2,1.3,2.2,2.4,2.3,2.4c0,0,0.1-0.1,0.2-0.2l1.4-1.5l1.2-1.2l-0.6-0.7
	l0.1-0.2c0.2,0.2,0.4,0.4,0.6,0.6c0,0,0.4-0.4,0.8-0.8l0.8-0.9V29v-1.1h-0.8l-0.7,0.8L63,29.5l-0.1-0.2l0.7-0.8l0.7-0.8l-0.6-0.6
	L62.9,26.2z M67.6,24.3c0,0-0.5-0.6-0.6-0.6c-0.1,0-0.5,0.5-0.6,0.6c-0.3,0.3-0.6,0.5-0.8,0.8c-0.1,0,0,0.2,0,1.3v1.2h1h1v-0.7
	L67.6,24.3z M21.8,78.7l-0.5,0.5c0.4,0.5,0.9,0.9,1.4,1.4c0,0,0.5,0,1.1,0l1.1,0v-1v-1L21.8,78.7L21.8,78.7z M33.8,53.9l-0.6-0.7
	h-1.6H30v1.8v1.8l1.5,1.6l-0.1,0.2c-0.5-0.5-1-1.1-1.5-1.6c0,0-0.4,0.3-0.8,0.8l-0.8,0.8l-0.1,0l0-0.2l0.8-0.8l0.8-0.8v-1.7
	c0-0.9,0-1.7,0-1.7c0,0-0.5,0.5-1,1.1l-1,1.1v1.4v2.6c0,0.6,0,1,0,1.1c0,0,0.1,0.1,0.1,0.1l2.1,2.2c0.5,0.5,1.9,2,2.2,2.3
	c0,0,1.6,0,4.6,0h4.7v-0.9v-0.9l0-2.1l0-3l-0.7,0l-0.5,0.5l-1,1.1l-0.1-0.1l0.7-0.8c0.4-0.4,0.7-0.8,0.7-0.8c0,0-1.2-1.4-1.3-1.5
	c0,0-0.4,0.3-0.8,0.8l-0.8,0.8l-0.1,0l0-0.2l0.8-0.8l0.8-0.8l0-0.2v-2.6v-0.6h-1.5h-1.6l-0.6,0.7l-0.7,0.8
	C34.2,54.4,34,54.2,33.8,53.9z M34.2,45l1.1-1.2l-0.7-0.7l-0.6,0l-2.5,0l-0.7,0.8L30,44.7v2.8v0.6l0.6,0.6l0.8-0.9l0.1,0l0,0.2
	l-0.8,0.9l0.6,0.7l0.6,0.7l0.3,0.2l4.7,0v-0.9v-1.4c-0.4-0.1-0.8,0-1.1,0.1c-0.1,0.1-0.1,0.2-0.1,0.2l-0.5,0.6l-0.6,0.6
	c-0.1,0-0.1,0-0.2-0.1c-0.1-0.1,1.1-1.3,1.3-1.4c-0.5-0.4-1-1.1-1.5-1.5v-0.2l0.1-0.1l0.7,0.8l0.7,0.8h1.1v-1.1c0-0.9,0.1-1.3,0-1.1
	c-0.1-0.2-0.6-0.6-0.8-0.9L35.5,44l-0.5,0.6l-0.5,0.6 M39,44.5L39,44.5c0-0.1-0.3-0.4-0.3-0.4l-1,1l-0.4,0.4v1.1v1.1h0.8l0.4-0.5
	c0.2-0.3,0.4-0.5,0.4-0.6v-2 M46.4,40.9L46.4,40.9l-1.1-0.1h-1.1l0,2.1l0.8,0.8c0.5,0.5,1.1,1,1.6,1.5c0,0,0.5-0.5,1-1l1-1l-1.1-1.1
	L46.4,40.9z M60.3,45.2v-5v-5L58.2,33L56,30.6l0-0.1h-4.8l-2,2.1h3.1l0.8-0.8l0.7-0.8l0.1,0l0,0.2L53.1,32l-0.8,0.8l1.5,1.6
	l-0.1,0.1L52.2,33c-1.1,0-2.2,0-3.3,0.1c0,0-0.1,0.5-0.1,1.8v1.7l0.7,0.7l0.7,0.7l0.1-0.1l0.1,0.2c-0.2,0.2-0.1,0.2-0.8,0.8
	l-0.6,0.6v1.7v1.7h3.1l0.1-0.1l0.7-0.7l0.7-0.7l0.1,0l0,0.2l-0.7,0.8c-0.4,0.4-0.7,0.8-0.7,0.8c0,0.1,1.4,1.5,1.4,1.5
	c0,0,0.4-0.4,0.8-0.8l0.8-0.8l0.1,0l0,0.2l-0.7,0.8L54,44.6l0,0.6H60.3z M58.7,49.7c0,0-0.1,0.2-0.1,0.2l-0.8-0.8l-0.8-0.8h-3.2
	l-2.3,2.5l1.2,1.2l1.2,1.2h3.3l1.4-1.6l0.1,0.2l-1.5,1.6l1.5,1.6c-0.2,0.2-0.1,0.1-0.4-0.2l-1.2-1.3c-1.1,0-2.2,0-3.2,0
	c0.1,1,0,2.1,0,3.1l0.5,0.6l1,1.1c0.1,0.1-0.1,0.1-0.1,0.2c-0.5-0.6-1.5-1.6-1.5-1.6l-1.3,1.4l1.4,1.6c-0.4,0.5,0.4-0.4-0.2,0.2
	l-1.6-1.6l-3.1,0l0,3.2l0.3,0.4l1.2,1.3l-0.1,0.1l-0.8-0.8l-0.8-0.8l-0.7,0.8c-0.4,0.4-0.7,0.8-0.8,0.8c0,0-0.2-0.1-0.2-0.1l0.8-0.8
	h0l0.8-0.8v-3.3l-1.2-1.2L46.5,56l-2.3,2.5l0,1.7v1.7l0.8,0.8l0.8,0.8l-0.2,0.1l-0.7-0.8L44,61.9l-0.8,0.8l-0.8,0.8l-0.1-0.2
	c0.1-0.1,0.2-0.2,0.7-0.7l0.8-0.8v-1.7v-1.7h-0.7h-1v2.5v2.5l0,2c0.2,0.3,0.5,0.5,4.5,4.7l4.4,4.7h9.2h9.2v-9.7v-9.7l-4.7-5l-4-4.3
	L60.6,46l-4.3,0H54v2h3.1l0.8-0.8c0.7-0.7,0.7-0.7,0.7-0.9c0-0.2,0.2,0.1,0.2,0.1l0,0.2L58,47.3l-0.8,0.8l0.7,0.8
	C58.4,49.3,58.7,49.7,58.7,49.7L58.7,49.7z M80.3,29.3c0,0-0.8-0.9-1.1-1.2l-0.4-0.5l0.1-0.1l0.8,0.8c0.4,0.4,0.8,0.8,0.8,0.8
	c0,0,0.3-0.3,0.7-0.7c0.4-0.4,0.7-0.7,0.7-0.7l-1.3-1.4l0-0.1l0.1,0l1.4,1.4l0.9,0l0.6,0l0,0.2l0.6,0l0-0.6v-0.8v-0.8l-0.7-0.9
	l0-0.1l-0.7-0.7l-0.8-0.8c0,0-0.3,0-0.5,0l-0.5,0c0.3,0.3,0.7,0.7,1,1.1l0.4,0.4l0,0.2l-0.1,0L81.7,24l-1.1-1.2h-1.1h-1.1l-0.4,0.5
	c-0.6,0.5-0.7,0.7-1.1,1.1l-0.1-0.1l0.2-0.2c0.2-0.3,0.5-0.5,0.7-0.8l0.4-0.5l-0.4,0l-0.4,0l-0.3,0.3l-1.6,1.7l-0.3,0.3v1.2v1.2H76
	c0.5-0.6,1-1.1,1.5-1.6c0.1,0.1,0.1,0.1,0.1,0.1l-0.2,0.2l-1,1.1l-0.3,0.3l0.2,0.2l1.3,1.4l0,0.2l-0.2,0L77,28.9L76.1,28l-0.2-0.2
	l-0.8,0l0,2.3l0.4,0.5l0.6,0.6l0.6,0.6l0.1-0.1l0.6-0.6l0.2,0l-0.1,0.2L77,32c0.1,0.1,0.2,0.3,0.4,0.4c0.4,0-0.1,0,0.7,0h0.7l1.5,0
	 M99.8,23.1l-0.3-0.3l-0.8,0l1.2,1.2l0.2,0.2l0,0.2l-0.1,0l-0.2-0.2l-1.3-1.4h-2.1l-1.5,1.7l-0.1-0.1l1.4-1.5c-0.4,0-0.7,0-1.1,0
	c0,0-0.8,0.8-0.8,0.8l-0.7,0.7l-0.8,0.8l0,1l0,1c0,0,0,0.1,0,0.2l0.1,0.2l0.6,0c0,0,0.9,0,1.3,0c0.2-0.2,0.9-0.9,0.8-0.8
	c-0.1,0.1,0.1-0.1,0.3-0.3l0.4-0.4l0.1,0l0,0.2L96,26.5c-0.3,0.4-0.6,0.6-0.9,1c0,0,0.3,0.4,0.7,0.8l0.7,0.7l0.8-0.8l0.8-0.8l0.1,0
	l0,0.2L97.7,28c-0.3,0.3-1.1,1.3-1.1,1.3c0,0,0.1,2.7,0.1,3.1c0.6,0,1.5,0,1.5,0h0.7c0.6,0,0.7,0,0.8-0.1c0.1-0.1,0.1-0.1,0.3-0.3
	c-0.1-0.1-0.2-0.3-0.4-0.5l-0.2-0.2l0.1-0.1c0.3,0.3,0.5,0.5,0.6,0.6l0.1,0.1l0.6-0.6l0.6-0.6l0.5-0.5c0-0.5,0-1.4,0-1.8l0-0.4
	l-0.4,0l-0.4,0l-0.2,0.2l-1.3,1.4l-0.2-0.2l1.5-1.6L99.3,26l0-0.1l0.1,0l0.2,0.2c0.4,0.4,0.7,0.8,1.1,1.1l0.3,0.3l0.4,0l0.4,0v-1.2
	v0v-1.2l-0.3-0.4L99.8,23.1L99.8,23.1z M104.1,24.4v-0.2l-0.5-0.6l-0.3,0.3c-0.3,0.4-0.7,0.7-1,1.1c0,0-0.1,0.4-0.1,1.2v1.2h1h1
	v-2.1V24.4z M109.9,23.7c-0.1,0-0.6,0.5-0.5,0.6c0,0,0,0.2,0,0.2l-0.1,3.1h1h1v-1.2c0-1.1,0-1.3,0-1.3c-0.1-0.1-0.2-0.2-0.3-0.4
	C110.6,24.4,110.3,24,109.9,23.7z M130.7,38.3v1.1v1.1h1l1.1,0v-0.9l-1.5-1.6l0.1-0.1l0.1,0.1l0.8,0.8c0.3,0.3,0.6,0.6,0.6,0.6
	c0,0,0.3-0.1,0.5-0.4l1-1l0.1-0.2c0.1,0.1,0.2,0.2,0.2,0.2l-0.8,0.8l-0.8,0.8V40v0.5h1.1h1.1l0.7-0.8l0.7-0.8l-0.9-1l0.2-0.1
	l0.2,0.2c0.2,0.3,0.5,0.5,0.7,0.8l0.7-0.7v-0.7v-2.6l-0.8-0.8l-0.8-0.9l-3.1,0l-0.4,0.4l-0.4,0.4l0.4,0.4l0.4,0.4l0,0.1l-0.1,0
	l-0.4-0.4c-0.2-0.2-0.4-0.4-0.4-0.4c0,0-0.3,0.3-0.7,0.7l-0.7,0.7l0,0.1v1.1C130.7,37.2,130.7,37.7,130.7,38.3L130.7,38.3z
	 M129.7,37.7l-0.1,0.2l0.1,0.1l0.1,0.1l-0.2,0l-0.1-0.1l-0.7,0.7l-0.7,0.7v1.6v1.6l1-1.1l1-1.1l0-0.1c0,0,0-0.5,0-1v-1V38v-0.3v-1.1
	c0-0.6,0-1.1,0-1.1c0,0-0.1-0.1-0.1-0.1l-0.9-1l-0.9-1V35v1.6l0.2,0.2c0.3,0.3,0.6,0.6,1,0.9C129.5,37.7,129.7,37.7,129.7,37.7
	L129.7,37.7z M32.3,50.9l-0.1,0l-1.9,2h1.4h1.4l0.6-0.7c0.5-0.6,0.6-0.7,0.5-0.7c-0.1-0.1,0.5-0.1,0.4,0c-0.1,0.1-0.1,0.1,0.5,0.8
	l0.6,0.7h1.5h1.5c-0.7-0.6-0.5-0.4-1-1l-1-1l-0.2-0.1H32.3z M40.8,48.6l-0.1,0L40,47.9c-0.4-0.4-0.7-0.7-0.7-0.7l0,0.7l0.7,0.7
	c0.4,0.4,0.7,0.7,0.7,0.7l1,1.1h2.3h2.3V48v-2.4l-1.6-1.7L44,43.1h-1l0.7,0.7l0.7,0.7l0,0.2l-0.1,0l-0.8-0.8l-0.8-0.8h-1l-1,0
	l-1.5,1.5c0,0.7,0,1.4,0,2.1c0,0.1,0.3,0.4,0.8,0.9l0.7,0.8L40.8,48.6z M37.3,48.3l0,1.3l0,0.9l1.1,1.1c0.5,0.6,1,1.1,1,1.1
	c0,0,0.4-0.4,0.9-0.9l0.9-0.9l0.2-0.3L39.9,49l-0.8-0.9h-1l-0.5,0.5l-0.1-0.1l0-0.1l0.3-0.3h-0.5V48.3z M37.5,42.9l0-0.2l0.1,0
	l0.5,0.5h0.5c0.5,0,0.5,0,0.5-0.1c0-0.1,0.1-0.1,0.1-0.2c0,0,0-0.3,0-0.7c0-0.4,0-0.1,0-0.6c0-0.6,0-1.6,0-2.1c0,0-0.3-0.3-0.6-0.6
	l-0.5-0.5l-2.3,0l-0.6,0.7l-0.6,0.6v2.3l0.5,0.5c0.2,0.3,0.4,0.4,0.7,0.7c0.1,0.1,0.2,0.1,1,0.1h1L37.5,42.9L37.5,42.9z M35.4,43.6
	c0.2,0.1,0.2-0.3,0.2-0.3c-0.3-0.4-0.7-0.7-1-1.1c0,0,0,0.2,0,0.4c0,0.2,0,0.3,0.1,0.4C35,43.1,35.2,43.4,35.4,43.6z M46.3,37.7
	v-1.1v-1.1l0-0.1l-0.7-0.7c-0.4-0.4-0.7-0.7-0.7-0.7c0,0-0.2,0.2-0.4,0.4c-0.2,0.2,0,0.1-0.4,0.4c0,0-0.1-0.1-0.1-0.1l0.8-0.9
	L43.9,33h-0.7l-0.7,0l-1.6,0l-0.8,0.9l-0.8,0.8V38c0.2,0.2,0.5,0.5,0.7,0.7c0.5-0.4,0.7-0.7,0.9-0.9c0.1,0.2,0.2,0.2,0.2,0.2
	l-0.5,0.5l-0.5,0.5l0.7,0.8l0.7,0.8h2.3v-0.9l-0.8-0.8l-0.8-0.8l0.2-0.1c0.1,0.1,0.2,0.1,0.3,0.3c0.2,0.2,0.5,0.5,0.7,0.7
	c0.2,0.2,0.5,0.4,0.5,0.4c0,0,0.3-0.3,0.6-0.6c0.3-0.3,0.8-0.8,0.8-0.8l0.1-0.1l0.2,0.1L45.6,38l-0.7,0.8l-0.6,0.7l0,0.9h1.1h1v-1.1
	v0V37.7L46.3,37.7z M46.7,37.7l0,0.2c0,0.3,0,2.5,0,2.5l1.1,1.1c0.6,0.6,1,1.1,1,1.1c0,0,0-0.7,0-1.6v-1.6l-0.7-0.7l-0.7-0.7
	l-0.1,0.1L47.2,38l0.1-0.1l0.2-0.1c0.3-0.3,0.6-0.7,0.9-1l0.2-0.2V35v-1.6l-0.9,1l-0.9,1l-0.1,0.1c0,0,0,0.5,0,1.1V37.7z
	 M139.4,42.7l0,0.2l-0.3,0.4h1c0.9,0,1,0,1-0.1c0.3-0.3,0.4-0.4,0.7-0.7l0.5-0.5v-1.1v0l0-1.1l-0.6-0.6l-0.6-0.6l-1.2,0l-1.2,0
	l-0.5,0.5c-0.3,0.3-0.5,0.6-0.6,0.6l0,1.1l0,0.7l0.1-0.1l0.1,0.2l-0.2,0.2c0,0.2,0-0.2,0,0.7c0,0.4,0,0.7,0,0.7c0,0,0.1,0.1,0.1,0.2
	c0,0.1,0.1,0.1,0.5,0.1h0.5L139,43l0.3-0.3 M138.3,44.1c-0.1,0-0.4,0.3-0.4,0.4v1.1v0.9c0,0.2,0,1.2,0,1.3l1.7,0v-1.1v-1.1l-0.4-0.4
	C138.9,44.8,138.6,44.5,138.3,44.1L138.3,44.1z M135.3,40.8h-1.2H133l0,2c0.6,0,1.2,0,1.3,0l1.8,0c0.2-0.2,0.3-0.3,0.5-0.5
	c0,0-0.1-0.1-0.2-0.2L135.3,40.8L135.3,40.8z M103.1,48.1l-0.1,0l-0.2-0.2l-0.2-0.2l-0.6,0l-0.6,0l-0.5,0.6l0.8,0.9l2,2.1l1.1,1.1
	l0.7-0.8l0.7-0.7l0.1,0.2c-0.5,0.5-0.9,1-1.4,1.5c0.5,0.7,1.2,1.2,1.8,1.8c0.2,0,0.2,0,4.6-4.7l4.4-4.7v-4.8v-4.8l-0.3-0.3l-0.3-0.3
	l-0.1-0.1l-1-1.1l-1-1.1l-0.5,0.6l0.7,0.8l0.8,0.8l0,0.1l-0.1,0l-0.8-0.8l-0.8-0.8h-1.5h-1.6v1.7v1.7l0.8,0.8l0.8,0.8l0,0.1l-0.1,0
	l-0.8-0.8c-0.4-0.4-0.8-0.8-0.8-0.8c0,0-1.1,1.2-1.5,1.6c-0.2,0.1-0.2,0-0.2,0l0.1-0.3c0.3-0.3,0.4-0.4,0.7-0.7l0.6-0.6l0.1-0.1
	v-1.8v-1.8l-1.1-1.2c-0.7-0.8-1.1-1.2-1.2-1.2c-0.1,0-0.4,0.4-1,1c-0.6,0.6-1,1.1-1,1.1l-0.2,0.2l-0.2,0.2v1.7v1.7l0.3,0.4
	c0.2,0.2,0.4,0.4,0.4,0.4c0,0,0.3-0.3,0.6-0.6l0.6-0.6l0.1,0l0,0.2l-0.6,0.6c-0.3,0.3-0.6,0.6-0.6,0.6c0,0,0.1,0.2,0.3,0.4l0.3,0.3
	l-0.1,0.1c-0.1-0.2-0.1-0.2-0.3-0.4l-0.3-0.3l-0.1,0.1l-0.1,0.1l0.4,0.4c0.4,0.4,0.6,0.6,0.9,1l0.2,0.2l-0.2,0.1
	c-0.3-0.3-0.6-0.7-1.1-1.1l-0.3-0.4h-0.9H103l-0.3,0.3l-0.2,0l0.3-0.3l-1.2,0l-1.3,1.3l-1.1,1.2c0.6,0.7,0.7,0.9,1.5,1.6l0.7,0.8
	h0.6h0.6l0.2-0.2l0.2-0.2l0.1,0l0,0.1l-0.2,0.2l0.9,0c0.8,0,0.9,0,0.9-0.1c0.3-0.3,0.5-0.5,0.8-0.8l0.7-0.7l0.2,0.2
	c-0.3,0.3-0.3,0.3-0.7,0.7l-0.8,0.8l1.5,1.6l-0.1,0.2l-0.8-0.8l-0.8-0.8h-1h-1l-0.5,0.6l-0.5,0.6v1.1v1.1l0.5,0.6l0.5,0.5h1.1h1.1
	l0.7-0.8l0.7-0.8l0.1,0.2l-0.8,0.9l-0.6,0.6l0.7,0.9l0.7,0.7l-0.1,0.2l-0.7-0.7l-0.8-0.8c0,0-0.4,0-1,0c-0.9,0-0.9,0-0.8,0.1
	C103.1,48,103.1,48.1,103.1,48.1L103.1,48.1z M25,73.1l-2.3,0h-0.8c-0.4,0.4-0.8,0.9-1.2,1.3l-0.3,0.3v1v1.1c0.4,0.4,0.6,0.7,0.9,1
	l0.4,0.4h2.7H25l2.2-2.4v-0.5l-1.1-1.2L25,73.1z M25,71l0,2.1c0.1-0.1,0.1-0.1,1.1,1l1,1.1v-2.1V71h-1.1H25z"/>
<path class="st0" d="M121.7,126.9h1.4c1.1,0,1.8-0.2,2.3-0.6c0.4-0.4,0.6-0.9,0.7-1.4c0-0.6-0.2-1-0.6-1.4c-0.4-0.4-1.1-0.6-2.1-0.6
	h-1.6V126.9z M116.1,119.2h9.3c2,0,3.5,0.5,4.5,1.4c1,1,1.5,2.3,1.5,4.1c0,1.8-0.5,3.3-1.7,4.3c-1.1,1-2.8,1.5-5,1.5h-3.1v6.7h-5.6
	V119.2z M96.9,131.3l5.3-0.3c0.1,0.9,0.3,1.5,0.7,2c0.6,0.7,1.4,1.1,2.5,1.1c0.8,0,1.4-0.2,1.8-0.6c0.4-0.4,0.6-0.8,0.6-1.3
	c0-0.5-0.2-0.9-0.6-1.3c-0.4-0.4-1.4-0.7-2.9-1.1c-2.5-0.5-4.2-1.3-5.2-2.2c-1.1-0.9-1.6-2.1-1.6-3.5c0-0.9,0.3-1.8,0.8-2.6
	c0.5-0.8,1.3-1.5,2.4-2c1.1-0.5,2.6-0.7,4.4-0.7c2.3,0,4.1,0.4,5.3,1.3c1.2,0.9,1.9,2.2,2.2,4.1l-5.3,0.3c-0.1-0.8-0.4-1.4-0.9-1.8
	c-0.5-0.4-1.1-0.6-1.9-0.6c-0.7,0-1.1,0.1-1.5,0.4c-0.3,0.3-0.5,0.6-0.5,1c0,0.3,0.1,0.6,0.4,0.8c0.3,0.2,0.9,0.5,1.9,0.7
	c2.4,0.5,4.2,1.1,5.3,1.6c1.1,0.5,1.8,1.2,2.3,2c0.5,0.8,0.7,1.7,0.7,2.7c0,1.2-0.3,2.2-1,3.2c-0.6,1-1.5,1.7-2.7,2.2
	c-1.2,0.5-2.6,0.8-4.4,0.8c-3.1,0-5.2-0.6-6.4-1.8C97.7,134.7,97,133.2,96.9,131.3z M64.1,119.2h13.8v3.9h-8.2v3.2h7v3.6h-7v7.4
	h-5.6V119.2z M50.1,123.3v9.9h1.4c1.2,0,2-0.1,2.5-0.4c0.5-0.3,0.9-0.7,1.2-1.4c0.3-0.6,0.4-1.7,0.4-3.1c0-1.9-0.3-3.2-0.9-3.9
	c-0.6-0.7-1.7-1.1-3.1-1.1H50.1z M44.5,119.2h8.3c1.6,0,3,0.2,4,0.7c1,0.4,1.8,1.1,2.5,1.9c0.7,0.8,1.1,1.8,1.4,2.9
	c0.3,1.1,0.4,2.3,0.4,3.5c0,1.9-0.2,3.4-0.7,4.5c-0.4,1.1-1.1,2-1.8,2.7c-0.8,0.7-1.6,1.2-2.5,1.4c-1.2,0.3-2.3,0.5-3.3,0.5h-8.3
	V119.2z"/>
</svg>
