<?xml version="1.0" encoding="utf-8"?>
<!-- Generator: Adobe Illustrator 19.2.1, SVG Export Plug-In . SVG Version: 6.00 Build 0)  -->
<svg version="1.1" id="Capa_1" xmlns="http://www.w3.org/2000/svg" xmlns:xlink="http://www.w3.org/1999/xlink" x="0px" y="0px"
	 viewBox="0 0 32.8 32.8" style="enable-background:new 0 0 32.8 32.8;" xml:space="preserve">
<style type="text/css">
	.st0{fill:#77184E;}
	.st1{fill:#FFFFFF;}
</style>
<path class="st0" d="M29.4,1.3h-1.1c0-0.1,0.1-0.2,0.1-0.3c0-0.5-0.4-1-1-1s-1,0.4-1,1c0,0.1,0,0.2,0.1,0.3h-3.7
	c0-0.1,0.1-0.2,0.1-0.3c0-0.5-0.4-1-1-1c-0.5,0-1,0.4-1,1c0,0.1,0,0.2,0.1,0.3h-3.7c0-0.1,0.1-0.2,0.1-0.3c0-0.5-0.4-1-1-1
	s-1,0.4-1,1c0,0.1,0,0.2,0.1,0.3h-3.7c0-0.1,0.1-0.2,0.1-0.3c0-0.5-0.4-1-1-1c-0.5,0-1,0.4-1,1c0,0.1,0,0.2,0.1,0.3H6.3
	c0-0.1,0.1-0.2,0.1-0.3c0-0.5-0.4-1-1-1s-1,0.4-1,1c0,0.1,0,0.2,0.1,0.3H3.4C1.9,1.3,0.6,2.5,0.6,4v26c0,1.5,1.2,2.8,2.8,2.8h22.9
	l5.9-5.9V4C32.1,2.5,30.9,1.3,29.4,1.3z M30.6,26.3l-0.3,0.3H28c-1.1,0-2,0.9-2,2V31l-0.3,0.3H3.4c-0.7,0-1.3-0.6-1.3-1.3V9h28.5
	V26.3z"/>
<g>
	<path class="st0" d="M11.1,18.7h1.1c0.5,0,0.9-0.1,1.1-0.4c0.2-0.3,0.4-0.6,0.4-1c0-0.4-0.1-0.7-0.4-0.9s-0.6-0.3-1-0.3
		c-0.4,0-0.7,0.1-1,0.3S11,16.9,11,17.2H9c0-0.5,0.1-1,0.4-1.4s0.7-0.7,1.2-1s1.1-0.3,1.7-0.3c1.1,0,1.9,0.3,2.5,0.8
		s0.9,1.2,0.9,2.1c0,0.5-0.1,0.9-0.4,1.3s-0.6,0.7-1.1,0.9c0.6,0.2,1,0.5,1.3,0.9s0.4,0.9,0.4,1.4c0,0.9-0.3,1.6-1,2.1
		s-1.5,0.8-2.6,0.8c-1,0-1.8-0.3-2.4-0.8s-0.9-1.2-0.9-2.1h2c0,0.4,0.1,0.7,0.4,0.9s0.6,0.4,1,0.4c0.5,0,0.8-0.1,1.1-0.4
		c0.3-0.2,0.4-0.6,0.4-1c0-1-0.5-1.5-1.6-1.5h-1V18.7z"/>
	<path class="st0" d="M21.9,24.6h-2V17l-2.4,0.7v-1.6l4.1-1.5h0.2V24.6z"/>
</g>
<g>
	<path class="st1" d="M10.8,6.3h-1L9.5,6.9H8.9L10,4.1h0.5l1.1,2.8H11L10.8,6.3z M9.9,5.9h0.7l-0.4-1.1L9.9,5.9z"/>
	<path class="st1" d="M13.1,6.7C12.9,6.9,12.7,7,12.5,7c-0.2,0-0.4-0.1-0.5-0.2s-0.2-0.3-0.2-0.6V4.8h0.6v1.4c0,0.2,0.1,0.3,0.3,0.3
		c0.2,0,0.3-0.1,0.4-0.2V4.8h0.6v2.1h-0.5L13.1,6.7z"/>
	<path class="st1" d="M13.9,5.8c0-0.3,0.1-0.6,0.2-0.8s0.4-0.3,0.6-0.3c0.2,0,0.4,0.1,0.5,0.2l0-0.2h0.5v2c0,0.2,0,0.3-0.1,0.5
		s-0.2,0.2-0.4,0.3s-0.3,0.1-0.5,0.1c-0.2,0-0.3,0-0.5-0.1s-0.3-0.1-0.3-0.2l0.3-0.3c0.1,0.2,0.3,0.2,0.5,0.2c0.1,0,0.3,0,0.3-0.1
		s0.1-0.2,0.1-0.3V6.7C15.2,6.9,15,7,14.8,7c-0.3,0-0.5-0.1-0.6-0.3S13.9,6.2,13.9,5.8L13.9,5.8z M14.5,5.9c0,0.2,0,0.3,0.1,0.5
		c0.1,0.1,0.2,0.2,0.3,0.2c0.2,0,0.3-0.1,0.4-0.2V5.4c-0.1-0.1-0.2-0.2-0.4-0.2c-0.1,0-0.2,0.1-0.3,0.2S14.5,5.7,14.5,5.9z"/>
	<path class="st1" d="M17.6,6.7C17.4,6.9,17.2,7,17,7c-0.2,0-0.4-0.1-0.5-0.2s-0.2-0.3-0.2-0.6V4.8h0.6v1.4c0,0.2,0.1,0.3,0.3,0.3
		c0.2,0,0.3-0.1,0.4-0.2V4.8h0.6v2.1h-0.5L17.6,6.7z"/>
	<path class="st1" d="M19.7,6.3c0-0.1,0-0.1-0.1-0.2s-0.2-0.1-0.3-0.1c-0.5-0.1-0.8-0.3-0.8-0.6c0-0.2,0.1-0.3,0.2-0.5
		s0.4-0.2,0.6-0.2c0.3,0,0.5,0.1,0.6,0.2s0.2,0.3,0.2,0.5h-0.6c0-0.1,0-0.1-0.1-0.2s-0.1-0.1-0.2-0.1c-0.1,0-0.2,0-0.2,0.1
		s-0.1,0.1-0.1,0.2c0,0.1,0,0.1,0.1,0.2s0.2,0.1,0.3,0.1s0.3,0.1,0.4,0.1c0.3,0.1,0.4,0.3,0.4,0.6c0,0.2-0.1,0.3-0.2,0.5
		S19.6,7,19.4,7c-0.2,0-0.3,0-0.5-0.1s-0.2-0.1-0.3-0.3s-0.1-0.2-0.1-0.4H19c0,0.1,0,0.2,0.1,0.2s0.2,0.1,0.3,0.1
		c0.1,0,0.2,0,0.2-0.1S19.7,6.4,19.7,6.3z"/>
	<path class="st1" d="M21.3,4.3v0.5h0.4v0.4h-0.4v1.1c0,0.1,0,0.1,0,0.2s0.1,0.1,0.2,0.1c0.1,0,0.1,0,0.2,0v0.4
		c-0.1,0-0.2,0.1-0.3,0.1c-0.4,0-0.6-0.2-0.6-0.6V5.2h-0.3V4.8h0.3V4.3H21.3z"/>
	<path class="st1" d="M23.1,6.3c0-0.1,0-0.1-0.1-0.2s-0.2-0.1-0.3-0.1c-0.5-0.1-0.8-0.3-0.8-0.6c0-0.2,0.1-0.3,0.2-0.5
		s0.4-0.2,0.6-0.2c0.3,0,0.5,0.1,0.6,0.2s0.2,0.3,0.2,0.5h-0.6c0-0.1,0-0.1-0.1-0.2s-0.1-0.1-0.2-0.1c-0.1,0-0.2,0-0.2,0.1
		s-0.1,0.1-0.1,0.2c0,0.1,0,0.1,0.1,0.2s0.2,0.1,0.3,0.1s0.3,0.1,0.4,0.1c0.3,0.1,0.4,0.3,0.4,0.6c0,0.2-0.1,0.3-0.2,0.5
		S23,7,22.8,7c-0.2,0-0.3,0-0.5-0.1S22,6.7,22,6.6s-0.1-0.2-0.1-0.4h0.5c0,0.1,0,0.2,0.1,0.2s0.2,0.1,0.3,0.1c0.1,0,0.2,0,0.2-0.1
		S23.1,6.4,23.1,6.3z"/>
</g>
</svg>
